<svg width="283" height="240" viewBox="0 0 283 240" fill="none" xmlns="http://www.w3.org/2000/svg">
<g clip-path="url(#clip0_231_99262)">
<ellipse cx="141.968" cy="227.04" rx="140.3" ry="19.2089" fill="black"/>
<path d="M113.725 15.7061H171.028V32.5956H113.725V15.7061Z" fill="white"/>
<path fill-rule="evenodd" clip-rule="evenodd" d="M113.725 15.7061H171.028V32.5956H113.725V15.7061Z" fill="white" stroke="black" stroke-width="0.947219" stroke-linejoin="round"/>
<path fill-rule="evenodd" clip-rule="evenodd" d="M73.3105 36.2153H88.3905V211.142H73.3105V36.2153Z" fill="#A0A4AD" stroke="black" stroke-width="0.947219" stroke-linejoin="round"/>
<path fill-rule="evenodd" clip-rule="evenodd" d="M88.3906 36.2153L99.8514 41.0409V194.856L88.3906 211.142V36.2153Z" fill="#838894" stroke="black" stroke-width="0.947219" stroke-linejoin="round"/>
<path fill-rule="evenodd" clip-rule="evenodd" d="M201.793 36.2153L190.332 41.0409V194.856L201.793 211.142V36.2153Z" fill="#838894" stroke="black" stroke-width="0.947219" stroke-linejoin="round"/>
<path fill-rule="evenodd" clip-rule="evenodd" d="M201.793 36.2153H216.873V211.142H201.793V36.2153Z" fill="#A0A4AD" stroke="black" stroke-width="0.947219" stroke-linejoin="round"/>
<path fill-rule="evenodd" clip-rule="evenodd" d="M99.8496 41.04H145.089V194.855H99.8496V41.04Z" fill="#EDEDED" stroke="black" stroke-width="0.947219" stroke-linejoin="round"/>
<path fill-rule="evenodd" clip-rule="evenodd" d="M145.09 41.04H190.33V194.855H145.09V41.04Z" fill="#EDEDED" stroke="black" stroke-width="0.947219" stroke-linejoin="round"/>
<rect x="112.392" y="57.8003" width="20.7679" height="57.5629" rx="3.74106" fill="#3A3E46" stroke="black" stroke-width="0.947219"/>
<rect x="122.775" y="77.2992" width="13.5295" height="13.5295" transform="rotate(45 122.775 77.2992)" fill="#3A3E46" stroke="white" stroke-width="0.947219"/>
<path d="M122.775 57.3267V77.2322" stroke="white" stroke-width="0.947219"/>
<path d="M122.775 96.5342V115.836" stroke="white" stroke-width="0.947219"/>
<rect x="157.63" y="57.8008" width="20.7679" height="57.5629" rx="3.74106" fill="#3A3E46" stroke="black" stroke-width="0.947219"/>
<rect x="168.016" y="77.2997" width="13.5295" height="13.5295" transform="rotate(45 168.016 77.2997)" fill="#3A3E46" stroke="white" stroke-width="0.947219"/>
<path d="M168.016 57.3271V77.2327" stroke="white" stroke-width="0.947219"/>
<path d="M168.016 96.5347V115.837" stroke="white" stroke-width="0.947219"/>
<path d="M121.564 19.3252H163.788V29.5795H121.564V19.3252Z" fill="black" stroke="black" stroke-width="0.947219" stroke-linejoin="round"/>
<path d="M88.3906 41.0409V36.2153H201.792V41.0409H88.3906Z" fill="#666C7A" stroke="black" stroke-width="0.947219"/>
<path d="M73.3105 20.5163C73.3105 15.8609 77.0845 12.0869 81.7399 12.0869H208.442C213.098 12.0869 216.871 15.8609 216.871 20.5163V36.2148H73.3105V20.5163Z" fill="#A0A4AD" stroke="black" stroke-width="0.947219"/>
<mask id="path-21-inside-1_231_99262" fill="white">
<path fill-rule="evenodd" clip-rule="evenodd" d="M49.1717 121.956C46.844 121.956 44.957 123.843 44.957 126.171V223.301C44.957 225.629 46.844 227.516 49.1717 227.516H137.254C139.582 227.516 141.469 225.629 141.469 223.301V126.171C141.469 123.843 139.582 121.956 137.254 121.956H49.1717ZM55.3333 128.09C53.0056 128.09 51.1186 129.977 51.1186 132.305V217.023C51.1186 219.351 53.0056 221.238 55.3333 221.238H131.427C133.754 221.238 135.641 219.351 135.641 217.023V132.305C135.641 129.977 133.754 128.09 131.427 128.09H55.3333Z"/>
</mask>
<path fill-rule="evenodd" clip-rule="evenodd" d="M49.1717 121.956C46.844 121.956 44.957 123.843 44.957 126.171V223.301C44.957 225.629 46.844 227.516 49.1717 227.516H137.254C139.582 227.516 141.469 225.629 141.469 223.301V126.171C141.469 123.843 139.582 121.956 137.254 121.956H49.1717ZM55.3333 128.09C53.0056 128.09 51.1186 129.977 51.1186 132.305V217.023C51.1186 219.351 53.0056 221.238 55.3333 221.238H131.427C133.754 221.238 135.641 219.351 135.641 217.023V132.305C135.641 129.977 133.754 128.09 131.427 128.09H55.3333Z" fill="white"/>
<path d="M45.9042 126.171C45.9042 124.366 47.3671 122.903 49.1717 122.903V121.009C46.3209 121.009 44.0098 123.32 44.0098 126.171H45.9042ZM45.9042 223.301V126.171H44.0098V223.301H45.9042ZM49.1717 226.568C47.3671 226.568 45.9042 225.105 45.9042 223.301H44.0098C44.0098 226.152 46.3209 228.463 49.1717 228.463V226.568ZM137.254 226.568H49.1717V228.463H137.254V226.568ZM140.521 223.301C140.521 225.105 139.058 226.568 137.254 226.568V228.463C140.105 228.463 142.416 226.152 142.416 223.301H140.521ZM140.521 126.171V223.301H142.416V126.171H140.521ZM137.254 122.903C139.058 122.903 140.521 124.366 140.521 126.171H142.416C142.416 123.32 140.105 121.009 137.254 121.009V122.903ZM49.1717 122.903H137.254V121.009H49.1717V122.903ZM52.0658 132.305C52.0658 130.5 53.5287 129.037 55.3333 129.037V127.143C52.4825 127.143 50.1714 129.454 50.1714 132.305H52.0658ZM52.0658 217.023V132.305H50.1714V217.023H52.0658ZM55.3333 220.29C53.5287 220.29 52.0658 218.828 52.0658 217.023H50.1714C50.1714 219.874 52.4825 222.185 55.3333 222.185V220.29ZM131.427 220.29H55.3333V222.185H131.427V220.29ZM134.694 217.023C134.694 218.828 133.231 220.29 131.427 220.29V222.185C134.278 222.185 136.589 219.874 136.589 217.023H134.694ZM134.694 132.305V217.023H136.589V132.305H134.694ZM131.427 129.037C133.231 129.037 134.694 130.5 134.694 132.305H136.589C136.589 129.454 134.278 127.143 131.427 127.143V129.037ZM55.3333 129.037H131.427V127.143H55.3333V129.037Z" fill="black" mask="url(#path-21-inside-1_231_99262)"/>
<mask id="path-23-inside-2_231_99262" fill="white">
<path fill-rule="evenodd" clip-rule="evenodd" d="M152.92 121.956C150.592 121.956 148.705 123.843 148.705 126.171V223.301C148.705 225.629 150.592 227.516 152.92 227.516H241.002C243.33 227.516 245.217 225.629 245.217 223.301V126.171C245.217 123.843 243.33 121.956 241.002 121.956H152.92ZM158.829 127.659C156.501 127.659 154.614 129.546 154.614 131.874V217.455C154.614 219.782 156.501 221.669 158.829 221.669H234.922C237.25 221.669 239.137 219.782 239.137 217.455V131.874C239.137 129.546 237.25 127.659 234.922 127.659H158.829Z"/>
</mask>
<path fill-rule="evenodd" clip-rule="evenodd" d="M152.92 121.956C150.592 121.956 148.705 123.843 148.705 126.171V223.301C148.705 225.629 150.592 227.516 152.92 227.516H241.002C243.33 227.516 245.217 225.629 245.217 223.301V126.171C245.217 123.843 243.33 121.956 241.002 121.956H152.92ZM158.829 127.659C156.501 127.659 154.614 129.546 154.614 131.874V217.455C154.614 219.782 156.501 221.669 158.829 221.669H234.922C237.25 221.669 239.137 219.782 239.137 217.455V131.874C239.137 129.546 237.25 127.659 234.922 127.659H158.829Z" fill="white"/>
<path d="M149.652 126.171C149.652 124.366 151.115 122.903 152.92 122.903V121.009C150.069 121.009 147.758 123.32 147.758 126.171H149.652ZM149.652 223.301V126.171H147.758V223.301H149.652ZM152.92 226.568C151.115 226.568 149.652 225.105 149.652 223.301H147.758C147.758 226.152 150.069 228.463 152.92 228.463V226.568ZM241.002 226.568H152.92V228.463H241.002V226.568ZM244.269 223.301C244.269 225.105 242.807 226.568 241.002 226.568V228.463C243.853 228.463 246.164 226.152 246.164 223.301H244.269ZM244.269 126.171V223.301H246.164V126.171H244.269ZM241.002 122.903C242.807 122.903 244.269 124.366 244.269 126.171H246.164C246.164 123.32 243.853 121.009 241.002 121.009V122.903ZM152.92 122.903H241.002V121.009H152.92V122.903ZM155.561 131.874C155.561 130.069 157.024 128.607 158.829 128.607V126.712C155.978 126.712 153.667 129.023 153.667 131.874H155.561ZM155.561 217.455V131.874H153.667V217.455H155.561ZM158.829 220.722C157.024 220.722 155.561 219.259 155.561 217.455H153.667C153.667 220.306 155.978 222.617 158.829 222.617V220.722ZM234.922 220.722H158.829V222.617H234.922V220.722ZM238.189 217.455C238.189 219.259 236.727 220.722 234.922 220.722V222.617C237.773 222.617 240.084 220.306 240.084 217.455H238.189ZM238.189 131.874V217.455H240.084V131.874H238.189ZM234.922 128.607C236.727 128.607 238.189 130.069 238.189 131.874H240.084C240.084 129.023 237.773 126.712 234.922 126.712V128.607ZM158.829 128.607H234.922V126.712H158.829V128.607Z" fill="black" mask="url(#path-23-inside-2_231_99262)"/>
<path d="M42.4961 140.72C42.4961 139.925 43.1038 139.267 43.8984 139.222C49.9248 138.876 74.3282 137.576 96.6166 137.793C111.431 137.938 159.09 138.923 197.095 139.304C220.693 139.541 240.712 139.376 246.248 139.321C247.087 139.312 247.766 139.99 247.766 140.829V210.384C247.766 211.16 247.178 211.808 246.405 211.875C241.61 212.291 224.974 213.591 210.032 213.045C192.442 212.401 129.391 210.69 128.749 210.673C128.729 210.672 128.734 210.673 128.714 210.673L44.0215 211.733C43.1822 211.744 42.4961 211.066 42.4961 210.227V140.72Z" fill="#465173" stroke="black" stroke-width="0.947219"/>
<path d="M50.3845 146.62C49.8416 152.286 50.3845 165.092 50.3844 170.985C50.3844 176.877 49.0272 194.027 50.3844 201.866" stroke="black" stroke-width="0.947219"/>
<path d="M47.3685 146.62C46.849 152.286 47.3685 165.092 47.3685 170.985C47.3685 176.877 45.2903 194.027 46.5892 201.866" stroke="black" stroke-width="0.947219"/>
<path d="M140.869 146.619C140.326 152.285 140.869 165.091 140.869 170.984C140.869 176.877 139.512 194.027 140.869 201.865" stroke="black" stroke-width="0.947219"/>
<path d="M137.853 146.619C137.333 152.285 137.853 165.091 137.853 170.984C137.853 176.877 135.775 194.027 137.074 201.865" stroke="black" stroke-width="0.947219"/>
<path d="M154.74 146.62C154.197 152.286 154.74 165.092 154.74 170.985C154.74 176.877 153.383 194.027 154.74 201.866" stroke="black" stroke-width="0.947219"/>
<path d="M151.724 146.62C151.204 152.286 151.724 165.092 151.724 170.985C151.724 176.877 149.646 194.027 150.945 201.866" stroke="black" stroke-width="0.947219"/>
<path d="M243.326 146.619C242.783 152.285 243.326 165.091 243.326 170.984C243.326 176.877 241.969 194.027 243.326 201.865" stroke="black" stroke-width="0.947219"/>
<path d="M240.31 146.619C239.79 152.285 240.31 165.091 240.31 170.984C240.31 176.877 238.232 194.027 239.531 201.865" stroke="black" stroke-width="0.947219"/>
<path d="M43.1223 232.41C44.5253 228.633 45.5256 197.508 45.8504 182.417H55.3984C54.2293 189.927 51.1765 218.749 49.9424 232.41H43.1223Z" fill="#F5B896" stroke="black" stroke-width="0.947219" stroke-linecap="round" stroke-linejoin="round"/>
<path d="M58.1251 236.127C56.1533 236.127 52.7988 234.383 50.5255 232.079H43.3157L43.9003 239.884C46.1087 239.81 51.625 239.918 56.3712 239.918C62.8033 239.918 60.8531 236.127 58.1251 236.127Z" fill="#BABECB" stroke="black" stroke-width="0.947219" stroke-linecap="round" stroke-linejoin="round"/>
<path d="M51.5006 236.985C49.5287 236.985 46.1743 234.383 43.9009 232.079H36.6912L34.9375 239.884C37.1459 239.81 44.6805 239.884 50.3315 239.884C56.2643 239.884 54.2286 236.985 51.5006 236.985Z" fill="#BABECB" stroke="black" stroke-width="0.947219" stroke-linecap="round" stroke-linejoin="round"/>
<path d="M36.4954 155.598C32.7931 144.441 37.2153 135.423 40.3522 134.39L62.7032 133.284C64.4677 141.914 60.6306 156.545 60.1544 157.737C59.2939 159.889 55.0568 181.526 56.4292 182.632L50.5474 182.3L47.9986 182.632L34.4704 181.968C37.2749 160.533 37.2748 159.031 36.4954 155.598Z" fill="#BABECB" stroke="black" stroke-width="0.947219" stroke-linecap="round" stroke-linejoin="round"/>
<path d="M48.7715 142.208C47.992 145.777 45.0302 152.244 39.4183 149.568" stroke="black" stroke-width="0.947219" stroke-linecap="round" stroke-linejoin="round"/>
<path d="M50.574 181.982L54.5573 156.582L48.3832 182.203L50.574 181.982Z" fill="black"/>
<path d="M56.5488 137.146C58.1421 146.532 54.5573 156.582 54.5573 156.582M54.5573 156.582L50.574 181.982L48.3832 182.203L54.5573 156.582Z" stroke="black" stroke-width="0.947219" stroke-linecap="round" stroke-linejoin="round"/>
<path d="M36.6908 232.41C38.0938 228.633 38.2497 194.862 38.2497 182.417H48.1875C48.0316 189.627 45.5244 218.749 44.2903 232.41H36.6908Z" fill="#F5B896" stroke="black" stroke-width="0.947219" stroke-linecap="round" stroke-linejoin="round"/>
<path d="M38.4453 184.777L47.7985 182.632H38.4453V184.777Z" fill="black" stroke="black" stroke-width="0.947219" stroke-linecap="round" stroke-linejoin="round"/>
<path d="M48.3828 184.992L55.3977 182.632H48.3828V184.992Z" fill="black" stroke="black" stroke-width="0.947219" stroke-linecap="round" stroke-linejoin="round"/>
<path d="M51.5028 85.7425C57.5434 85.7425 63.1944 84.5733 69.8196 81.8408C72.5476 86.3226 78.0036 89.7696 79.5625 91.978C74.73 93.6927 64.3635 98.0141 59.2972 98.9884C67.4033 112.551 66.0523 129.586 66.3121 138.16C60.2715 136.016 53.2565 134.68 47.9954 137.185C44.7217 138.744 37.0183 137.575 33.5758 136.796C33.5758 128.802 35.1347 119.838 38.4473 111.464C36.109 110.1 30.2632 109.126 26.366 108.151C28.8602 98.9539 38.0576 87.821 42.3444 83.4042L46.9236 84.5733L51.5028 85.7425Z" fill="#465173"/>
<path d="M38.4473 111.464C36.109 110.1 30.2632 109.126 26.366 108.151C28.8602 98.9539 38.0576 87.821 42.3444 83.4042L46.9236 84.5733L51.5028 85.7425C57.5434 85.7425 63.1944 84.5733 69.8196 81.8408C72.5476 86.3226 78.0036 89.7696 79.5625 91.978C74.73 93.6927 64.3635 98.0141 59.2972 98.9884M38.4473 111.464C35.1347 119.838 33.5758 128.802 33.5758 136.796C37.0183 137.575 44.7217 138.744 47.9954 137.185C53.2565 134.68 60.2715 136.016 66.3121 138.16C66.0523 129.586 67.4033 112.551 59.2972 98.9884M38.4473 111.464L42.3444 113.412C42.3444 108.926 43.7085 104.055 45.0725 96.6501M59.2972 98.9884C58.6699 97.8972 56.8924 95.1562 56.1794 94.3118" stroke="black" stroke-width="0.947219" stroke-linecap="round" stroke-linejoin="round"/>
<path d="M79.5287 91.2496C80.1511 90.7552 77.5625 86.7051 76.5917 85.5241C75.9871 86.0532 75.6583 87.9739 74.8804 88.5919C76.0231 89.5387 78.9063 91.7441 79.5287 91.2496Z" fill="black" stroke="black" stroke-width="0.947219" stroke-linecap="round" stroke-linejoin="round"/>
<path d="M26.172 108.38C30.2553 110.915 39.1678 115.549 42.1504 113.811C37.0906 111.82 26.8111 107.945 26.172 108.38Z" fill="black" stroke="black" stroke-width="0.947219" stroke-linecap="round" stroke-linejoin="round"/>
<path d="M34.8046 148.77C33.8093 145.721 36.128 125.997 40.0954 112.137C36.1083 109.9 32.0163 109.408 30.3046 109.408C27.8555 121.925 29.8204 136.433 29.5286 148.77C28.5853 151.836 28.6015 156.292 29.9183 157.539C30.6457 158.227 31.1166 157.699 31.0103 157.164C31.2611 157.816 31.6448 158.225 31.8214 158.225C32.0163 158.225 32.6008 158.37 32.7957 157.641C33.2329 158.544 33.5751 158.37 33.9273 158.37C35.2238 158.318 34.0092 156.256 34.8046 153.372C35.2468 154.22 36.4908 155.65 37.9292 154.585C38.3416 154.279 35.1467 151.194 34.8046 148.77Z" fill="#F5B896"/>
<path d="M32.7957 157.641C33.2329 158.544 33.5751 158.37 33.9273 158.37C35.2238 158.318 34.0092 156.256 34.8046 153.372C35.2468 154.22 36.4908 155.65 37.9292 154.585C38.3416 154.279 35.1467 151.194 34.8046 148.77C33.8093 145.721 36.128 125.997 40.0954 112.137C36.1083 109.9 32.0163 109.408 30.3046 109.408C27.8555 121.925 29.8204 136.433 29.5286 148.77C28.5853 151.836 28.6015 156.292 29.9183 157.539C30.7421 158.318 31.2368 157.539 30.9369 156.954M32.7957 157.641C32.6008 158.37 32.0163 158.225 31.8214 158.225C31.6265 158.225 31.1794 157.727 30.9369 156.954M32.7957 157.641C32.7957 157.641 32.1061 156.759 32.3585 153.372M30.9369 156.954C30.9369 156.954 29.9626 155.005 30.5472 153.372" stroke="black" stroke-width="0.947219" stroke-linecap="round" stroke-linejoin="round"/>
<path d="M76.0789 74.5733C77.891 76.5629 73.5203 79.8919 69.4283 82.0354C71.8938 85.0347 74.6185 89.4858 76.4289 89.1602C77.8578 87.3092 88.9354 78.6787 85.2118 74.5734C83.1173 72.2641 66.1708 60.1967 58.9545 55.9391C58.9464 53.7174 55.6097 52.6188 54.0185 52.129C52.7455 51.7371 52.0737 54.6484 51.8969 56.153C47.9297 55.5523 47.3769 59.2881 48.7441 58.9098C51.5611 58.1304 52.6041 59.4887 54.373 60.2798C56.3701 59.6059 73.8139 72.0864 76.0789 74.5733Z" fill="#F5B896" stroke="black" stroke-width="0.947219" stroke-linecap="round" stroke-linejoin="round"/>
<path d="M54.225 57.3781C54.7897 56.7391 53.4955 55.2158 52.4472 54.2893C51.3989 53.3629 50.8447 53.5524 50.4288 54.023C50.0129 54.4935 49.8929 55.0669 50.9412 55.9934C51.9895 56.9198 53.6602 58.0171 54.225 57.3781Z" fill="#F5B896" stroke="black" stroke-width="0.947219" stroke-linecap="round" stroke-linejoin="round"/>
<path d="M55.5648 55.7633C56.1296 55.1243 54.8353 53.6011 53.787 52.6746C52.7387 51.7481 52.1845 51.9377 51.7686 52.4082C51.3528 52.8788 51.2327 53.4521 52.281 54.3786C53.3293 55.3051 55.0001 56.4023 55.5648 55.7633Z" fill="#F5B896" stroke="black" stroke-width="0.947219" stroke-linecap="round" stroke-linejoin="round"/>
<path d="M57.0922 54.4913C57.6569 53.8523 56.3627 52.3291 55.3144 51.4026C54.2661 50.4761 53.7118 50.6657 53.296 51.1363C52.8801 51.6068 52.7601 52.1802 53.8084 53.1066C54.8567 54.0331 56.5274 55.1304 57.0922 54.4913Z" fill="#F5B896" stroke="black" stroke-width="0.947219" stroke-linecap="round" stroke-linejoin="round"/>
<path d="M64.3374 60.0205C63.6706 57.8719 61.1674 54.5645 59.0762 54.5645C59.8208 56.4351 61.1053 64.3074 61.1674 66.6457C62.7785 66.6457 66.0911 65.6714 64.3374 60.0205Z" fill="#BFC2C8" stroke="black" stroke-width="0.740464" stroke-linecap="round" stroke-linejoin="round"/>
<path d="M61.8047 74.4447V60.0206C61.8047 58.4618 60.8304 52.8109 51.2823 52.616C41.7342 52.4212 40.1753 59.0462 40.1753 59.0462C40.1753 62.7785 41.3569 64.8744 42.82 66.0104C41.2083 65.041 38.768 64.2741 38.2268 66.8452C37.6032 69.807 40.8249 70.9372 42.5137 71.1321C43.7608 77.8352 42.5137 82.7587 41.7342 84.3825C43.2931 87.5002 48.7491 86.9806 51.2823 86.3311V81.4596C61.7267 81.7714 61.8047 77.9521 61.8047 74.4447Z" fill="#F5B896" stroke="black" stroke-width="0.740464" stroke-linejoin="round"/>
<path d="M51.5547 81.5633C50.1894 81.5012 47.9466 81.0953 47.3415 79.9715C47.3161 79.9162 47.2915 79.8622 47.2678 79.8096C47.2886 79.8651 47.3133 79.9191 47.3415 79.9715C48.2878 82.035 50.3402 85.9363 51.5547 86.2399V81.5633Z" fill="black" stroke="black" stroke-width="0.740464" stroke-linecap="round" stroke-linejoin="round"/>
<path d="M43.6816 65.8665C41.9279 61.5794 41.5382 58.6565 42.9022 55.3439C41.5382 54.662 39.7844 56.5132 38.6152 58.6567C36.9145 61.7746 38.6152 66.0612 38.6152 66.0612C41.1484 63.3334 44.6012 68.1146 43.6816 65.8665Z" fill="#BFC2C8" stroke="black" stroke-width="0.740464" stroke-linecap="round" stroke-linejoin="round"/>
<path d="M50.6973 57.225C51.6716 56.513 55.5687 56.3181 57.3225 57.225" stroke="black" stroke-width="0.584577" stroke-linecap="round" stroke-linejoin="round"/>
<path d="M52.4512 58.2671C53.7502 57.8774 54.3218 57.7991 55.5689 58.2668" stroke="black" stroke-width="0.584577" stroke-linecap="round" stroke-linejoin="round"/>
<path d="M53.2803 69.7716C53.5939 68.7421 54.6827 68.1618 55.7122 68.4755C56.7416 68.7892 57.3219 69.878 57.0082 70.9074C56.8224 71.5173 56.3646 71.9695 55.8082 72.1716" stroke="black" stroke-width="0.584577" stroke-linecap="round" stroke-linejoin="round"/>
<circle cx="0.584577" cy="0.584577" r="0.584577" transform="matrix(-1 0 0 1 52.4746 68.0098)" fill="black"/>
<circle cx="0.584577" cy="0.584577" r="0.584577" transform="matrix(-1 0 0 1 58.709 67.6157)" fill="black"/>
<path d="M52.4746 66.4467C52.4746 67.6117 50.7209 66.447 48.9671 65.6675" stroke="black" stroke-width="0.584577" stroke-linecap="round" stroke-linejoin="round"/>
<path d="M56.956 66.4466C56.956 67.8106 59.4892 65.2729 59.8789 64.8877" stroke="black" stroke-width="0.584577" stroke-linecap="round" stroke-linejoin="round"/>
<path d="M52.5525 76.3367C52.999 75.9041 53.8385 74.6121 55.2025 75.0204C56.5665 75.4287 56.1768 76.5793 56.1116 76.9775" stroke="black" stroke-width="0.584577" stroke-linecap="round" stroke-linejoin="round"/>
<circle cx="51.3066" cy="67.6162" r="2.53317" stroke="black" stroke-width="0.584577" stroke-linecap="round" stroke-linejoin="round"/>
<path d="M60.9765 67.6162C60.9765 69.0152 59.8424 70.1493 58.4433 70.1493C58.0216 70.1493 57.624 70.0463 57.2742 69.864C57.2742 69.864 57.2742 69.4546 56.8845 68.9802C56.5193 68.5357 56.0323 68.3956 56.0323 68.3956C55.953 68.1501 55.9102 67.8881 55.9102 67.6162C55.9102 66.2171 57.0443 65.083 58.4433 65.083C59.8424 65.083 60.9765 66.2171 60.9765 67.6162Z" stroke="black" stroke-width="0.584577" stroke-linecap="round" stroke-linejoin="round"/>
<path d="M43.707 65.6675C44.8762 66.317 47.4483 67.6161 48.3836 67.6161" stroke="black" stroke-width="0.584577" stroke-linecap="round" stroke-linejoin="round"/>
<circle cx="51.3066" cy="67.6162" r="2.53317" fill="white" stroke="black" stroke-width="0.584577" stroke-linecap="round" stroke-linejoin="round"/>
<path d="M60.9765 67.6162C60.9765 69.0152 59.8424 70.1493 58.4433 70.1493C58.0216 70.1493 57.624 70.0463 57.2742 69.864C57.2742 69.864 57.2742 69.4546 56.8845 68.9802C56.5193 68.5357 56.0323 68.3956 56.0323 68.3956C55.953 68.1501 55.9102 67.8881 55.9102 67.6162C55.9102 66.2171 57.0443 65.083 58.4433 65.083C59.8424 65.083 60.9765 66.2171 60.9765 67.6162Z" fill="white" stroke="black" stroke-width="0.584577" stroke-linecap="round" stroke-linejoin="round"/>
<path d="M43.707 65.6675C44.8762 66.317 47.4483 67.6161 48.3836 67.6161" stroke="black" stroke-width="0.584577" stroke-linecap="round" stroke-linejoin="round"/>
<circle cx="0.584577" cy="0.584577" r="0.584577" transform="matrix(-1 0 0 1 52.2812 67.811)" fill="black"/>
<circle cx="0.584577" cy="0.584577" r="0.584577" transform="matrix(-1 0 0 1 58.5176 67.811)" fill="black"/>
<path d="M53.4512 67.811H49.9437" stroke="black" stroke-width="0.584577" stroke-linecap="round" stroke-linejoin="round"/>
<path d="M60.4668 67.811H56.9593" stroke="black" stroke-width="0.584577" stroke-linecap="round" stroke-linejoin="round"/>
</g>
<defs>
<clipPath id="clip0_231_99262">
<rect width="282.062" height="240" fill="white" transform="translate(0.402344)"/>
</clipPath>
</defs>
</svg>
