<svg width="233" height="12" viewBox="0 0 233 12" fill="none" xmlns="http://www.w3.org/2000/svg">
<path fill-rule="evenodd" clip-rule="evenodd" d="M4.82583 10.7901C4.86451 10.7219 4.87625 10.641 4.85864 10.5641C4.84103 10.4873 4.7954 10.4202 4.73112 10.3768C3.34118 9.44253 2.42249 7.83181 2.42249 5.99982C2.42249 4.16807 3.34118 2.55736 4.73112 1.62312C4.79538 1.57965 4.84099 1.51261 4.8586 1.43575C4.87621 1.35888 4.86448 1.27802 4.82583 1.20974L4.23249 0.155631C4.21177 0.119024 4.18402 0.0871151 4.15091 0.0618399C4.11781 0.0365646 4.08005 0.0184493 4.03992 0.00859254C3.99979 -0.00126423 3.95812 -0.0026571 3.91745 0.0044984C3.87678 0.0116539 3.83794 0.0272086 3.80331 0.0502194C1.89564 1.30713 0.630859 3.50144 0.630859 5.99994C0.630859 8.49844 1.89552 10.6926 3.80331 11.9497C3.83794 11.9727 3.87677 11.9882 3.91743 11.9954C3.9581 12.0025 3.99975 12.0011 4.03988 11.9913C4.08 11.9814 4.11776 11.9633 4.15087 11.9381C4.18398 11.9128 4.21175 11.881 4.23249 11.8444L4.82583 10.7901Z" fill="#1361F0"/>
<path fill-rule="evenodd" clip-rule="evenodd" d="M10.8117 0.15554L10.2185 1.2099C10.1799 1.27813 10.1681 1.35893 10.1857 1.43575C10.2033 1.51256 10.2489 1.57957 10.3131 1.62303C11.703 2.55726 12.6216 4.1681 12.6216 5.99997C12.6216 7.83184 11.703 9.44256 10.3131 10.3769C10.2489 10.4204 10.2033 10.4874 10.1857 10.5642C10.1681 10.641 10.1799 10.7218 10.2185 10.79L10.8117 11.8443C10.8324 11.8809 10.8602 11.9128 10.8933 11.938C10.9264 11.9633 10.9642 11.9814 11.0043 11.9913C11.0444 12.0011 11.0861 12.0025 11.1267 11.9954C11.1674 11.9882 11.2062 11.9727 11.2409 11.9497C13.1488 10.6927 14.4132 8.49848 14.4132 5.99997C14.4132 3.50147 13.1485 1.30728 11.2409 0.050129C11.2062 0.0271431 11.1674 0.0116116 11.1267 0.0044758C11.0861 -0.00265998 11.0444 -0.00125141 11.0043 0.00861612C10.9642 0.0184837 10.9264 0.0366047 10.8934 0.0618808C10.8603 0.087157 10.8325 0.119062 10.8118 0.155662" fill="#1361F0"/>
<path fill-rule="evenodd" clip-rule="evenodd" d="M27.6197 5.99991C27.6197 4.44254 26.4479 3.24098 24.9301 3.24098C23.4169 3.24098 22.2405 4.44254 22.2405 5.99991C22.2405 7.55728 23.4169 8.75844 24.9301 8.75844C26.4483 8.75844 27.6197 7.55728 27.6197 5.99991ZM20.6699 5.99991C20.6699 3.58008 22.5079 1.75366 24.9301 1.75366C27.3512 1.75366 29.1903 3.58048 29.1903 5.99991C29.1903 8.41975 27.3512 10.2458 24.9301 10.2458C22.5079 10.2458 20.6699 8.41975 20.6699 5.99991ZM36.412 4.50185C36.412 3.74246 35.939 3.21392 35.0354 3.21392H33.6487C33.579 3.21392 33.5122 3.24231 33.463 3.29284C33.4137 3.34337 33.386 3.4119 33.386 3.48337V5.5048C33.386 5.65326 33.504 5.77345 33.6487 5.77345H35.0354C35.9394 5.77345 36.412 5.29426 36.412 4.50185ZM37.9302 4.51777C37.9302 6.00549 36.8896 7.13143 35.2721 7.13143H33.6487C33.579 7.13143 33.5122 7.15981 33.463 7.21034C33.4137 7.26087 33.386 7.32941 33.386 7.40087V9.86926C33.3861 9.90457 33.3794 9.93955 33.3662 9.97219C33.3531 10.0048 33.3338 10.0345 33.3095 10.0595C33.2851 10.0845 33.2563 10.1043 33.2245 10.1178C33.1927 10.1313 33.1586 10.1383 33.1241 10.1383H32.0832C32.0487 10.1384 32.0145 10.1314 31.9827 10.1179C31.9508 10.1044 31.9218 10.0846 31.8974 10.0596C31.873 10.0347 31.8537 10.005 31.8405 9.97231C31.8273 9.93964 31.8205 9.90463 31.8205 9.86926V2.13057C31.8205 1.98211 31.938 1.86152 32.0832 1.86152H35.2721C36.89 1.86152 37.9302 3.05193 37.9302 4.51777ZM42.0317 3.55899V5.02999C42.0317 5.17844 42.1485 5.29944 42.294 5.29944H44.6317C44.7768 5.29944 44.8943 5.41963 44.8943 5.56888V6.44209C44.8943 6.51355 44.8667 6.58209 44.8174 6.63262C44.7681 6.68315 44.7013 6.71154 44.6317 6.71154H42.294C42.2596 6.71148 42.2254 6.71839 42.1936 6.73186C42.1618 6.74534 42.1328 6.76511 42.1084 6.79006C42.084 6.815 42.0647 6.84463 42.0514 6.87726C42.0382 6.90988 42.0314 6.94485 42.0313 6.98019V8.44084C42.0313 8.58969 42.1485 8.71029 42.294 8.71029H45.0208C45.1655 8.71029 45.2831 8.83088 45.2831 8.97894V9.86886C45.2831 9.94026 45.2555 10.0087 45.2063 10.0592C45.1571 10.1098 45.0904 10.1382 45.0208 10.1383H40.7281C40.6936 10.1383 40.6594 10.1313 40.6276 10.1178C40.5957 10.1042 40.5668 10.0844 40.5425 10.0594C40.5181 10.0343 40.4988 10.0046 40.4856 9.97195C40.4725 9.93926 40.4657 9.90423 40.4658 9.86886V2.13057C40.4658 1.98211 40.5833 1.86192 40.7281 1.86192H45.0204C45.1652 1.86192 45.2827 1.98211 45.2827 2.13057V3.0201C45.2827 3.09149 45.2551 3.15996 45.2059 3.21048C45.1567 3.261 45.09 3.28944 45.0204 3.28954H42.2936C42.2239 3.28954 42.1571 3.31793 42.1079 3.36846C42.0586 3.41899 42.0317 3.48752 42.0317 3.55899ZM55.7302 2.13057V9.86886C55.7302 9.94032 55.7026 10.0089 55.6533 10.0594C55.604 10.1099 55.5372 10.1383 55.4676 10.1383H54.375C54.3354 10.1384 54.2964 10.1292 54.2608 10.1116C54.2251 10.0939 54.1939 10.0682 54.1693 10.0364L50.1148 4.81308C49.9596 4.61408 49.6473 4.72592 49.6473 4.98104V9.86886C49.6473 9.94032 49.6196 10.0089 49.5703 10.0594C49.5211 10.1099 49.4543 10.1383 49.3846 10.1383H48.3653C48.2957 10.1382 48.229 10.1098 48.1798 10.0592C48.1307 10.0087 48.103 9.94026 48.103 9.86886V2.13057C48.103 1.98211 48.2202 1.86152 48.3653 1.86152H49.4474C49.5274 1.86152 49.6026 1.89893 49.6523 1.96261L53.708 7.16725C53.8628 7.36624 54.1755 7.25401 54.1755 7.00009V2.13017C54.1755 1.98172 54.2923 1.86112 54.4374 1.86112H55.4676C55.6123 1.86112 55.7302 1.98211 55.7302 2.13057Z" fill="black"/>
<path fill-rule="evenodd" clip-rule="evenodd" d="M71.7504 5.98917C71.7504 8.41935 69.9176 10.2458 67.4906 10.2458C65.0684 10.2458 63.2305 8.41895 63.2305 5.99991C63.2305 3.58008 65.0684 1.75406 67.4906 1.75406C68.8835 1.75406 70.0848 2.36141 70.8483 3.33213C70.8728 3.36285 70.8904 3.3987 70.8999 3.43716C70.9094 3.47561 70.9106 3.51574 70.9033 3.5547C70.8961 3.59367 70.8806 3.63053 70.8579 3.6627C70.8353 3.69486 70.8061 3.72155 70.7723 3.74087L69.8722 4.25071C69.8204 4.28097 69.7601 4.29215 69.7013 4.28237C69.6425 4.27259 69.5887 4.24246 69.549 4.19698C69.0601 3.61192 68.3279 3.24098 67.4848 3.24098C65.9775 3.24098 64.8011 4.42105 64.8011 6.03733C64.8011 7.55211 65.8463 8.75884 67.5116 8.75884C68.6961 8.75884 69.5765 8.1507 69.9622 7.18635C70.0316 7.01123 69.9001 6.819 69.7158 6.819H68.2414C68.2069 6.819 68.1728 6.81202 68.141 6.79848C68.1091 6.78493 68.0802 6.76508 68.0558 6.74005C68.0315 6.71503 68.0121 6.68532 67.999 6.65263C67.9858 6.61994 67.9791 6.58492 67.9791 6.54955V5.76271C67.9791 5.61385 68.0967 5.49326 68.2414 5.49326H71.4792C71.6185 5.49326 71.7314 5.60351 71.7415 5.74559C71.7473 5.8236 71.7504 5.90479 71.7504 5.98917ZM80.6797 5.99991C80.6797 4.44254 79.508 3.24138 77.9902 3.24138C76.4774 3.24138 75.3006 4.44254 75.3006 5.99991C75.3006 7.55728 76.4774 8.75844 77.9902 8.75844C79.508 8.75844 80.6797 7.55728 80.6797 5.99991ZM73.73 5.99991C73.73 3.58008 75.5683 1.75366 77.9902 1.75366C80.4112 1.75366 82.2503 3.58048 82.2503 5.99991C82.2503 8.41975 80.4112 10.2462 77.9902 10.2462C75.5683 10.2462 73.73 8.41935 73.73 5.99991ZM91.2126 2.22609L88.3543 9.96438C88.3354 10.0154 88.302 10.0594 88.2582 10.0904C88.2145 10.1215 88.1626 10.1382 88.1094 10.1383H86.8535C86.8002 10.1383 86.7483 10.1216 86.7045 10.0906C86.6607 10.0595 86.6271 10.0155 86.6083 9.96438L83.7546 2.22609C83.7396 2.18532 83.7344 2.14143 83.7396 2.09819C83.7448 2.05494 83.7601 2.01363 83.7842 1.97778C83.8084 1.94194 83.8407 1.91264 83.8783 1.89239C83.9159 1.87214 83.9577 1.86155 84.0002 1.86152H85.0904C85.201 1.86152 85.3 1.93316 85.3372 2.04022L87.2345 7.494C87.3175 7.7328 87.6458 7.7328 87.7284 7.4944L89.6304 2.04022C89.6485 1.98791 89.6821 1.94265 89.7263 1.91066C89.7706 1.87866 89.8234 1.8615 89.8775 1.86152H90.9674C91.1509 1.86152 91.2782 2.04977 91.2126 2.22609ZM95.2706 3.55859V5.03039C95.2706 5.17884 95.3882 5.29944 95.5329 5.29944H97.871C98.0157 5.29944 98.1336 5.41963 98.1336 5.56848V6.44209C98.1335 6.51348 98.1058 6.58192 98.0566 6.63236C98.0073 6.68281 97.9406 6.71114 97.871 6.71114H95.5329C95.4633 6.71124 95.3966 6.73968 95.3474 6.7902C95.2983 6.84072 95.2706 6.90919 95.2706 6.98058V8.44124C95.2706 8.58969 95.3882 8.70989 95.5329 8.70989H98.2597C98.4049 8.70989 98.522 8.83088 98.522 8.97933V9.86886C98.5221 9.90423 98.5153 9.93926 98.5022 9.97194C98.489 10.0046 98.4697 10.0343 98.4453 10.0594C98.421 10.0844 98.3921 10.1042 98.3602 10.1178C98.3284 10.1313 98.2942 10.1383 98.2597 10.1383H93.967C93.9325 10.1383 93.8984 10.1312 93.8666 10.1177C93.8348 10.1041 93.8059 10.0842 93.7816 10.0592C93.7573 10.0342 93.738 10.0045 93.7249 9.97185C93.7118 9.93919 93.705 9.90419 93.7051 9.86886V2.13096C93.7051 1.98211 93.8223 1.86152 93.967 1.86152H98.2597C98.4049 1.86152 98.522 1.98211 98.522 2.13096V3.02049C98.5221 3.05584 98.5153 3.09085 98.5022 3.12352C98.489 3.15618 98.4697 3.18586 98.4453 3.21086C98.421 3.23585 98.392 3.25566 98.3602 3.26917C98.3283 3.28267 98.2942 3.28959 98.2597 3.28954H95.5329C95.4634 3.28965 95.3967 3.31802 95.3476 3.36846C95.2984 3.41889 95.2707 3.48726 95.2706 3.55859ZM102.907 5.08412C102.907 5.23257 103.025 5.35356 103.17 5.35356H104.389C105.14 5.35356 105.545 4.95954 105.545 4.29727C105.545 3.64535 105.14 3.21949 104.388 3.21949H103.17C103.1 3.21949 103.033 3.24788 102.984 3.29841C102.935 3.34894 102.907 3.41748 102.907 3.48894V5.08412ZM104.065 6.64069H103.169C103.1 6.64069 103.033 6.66908 102.984 6.71961C102.934 6.77014 102.907 6.83868 102.907 6.91014V9.86886C102.907 9.90423 102.9 9.93926 102.887 9.97194C102.874 10.0046 102.854 10.0343 102.83 10.0594C102.806 10.0844 102.777 10.1042 102.745 10.1178C102.713 10.1313 102.679 10.1383 102.644 10.1383H101.604C101.569 10.1383 101.535 10.1313 101.503 10.1178C101.472 10.1042 101.443 10.0844 101.418 10.0594C101.394 10.0343 101.375 10.0046 101.361 9.97194C101.348 9.93926 101.342 9.90423 101.342 9.86886V2.13096C101.342 1.98211 101.459 1.86152 101.604 1.86152H104.493C106.153 1.86152 107.062 2.96079 107.062 4.31319C107.062 5.21864 106.609 5.94499 105.911 6.33423C105.88 6.3513 105.853 6.37458 105.831 6.40269C105.809 6.4308 105.793 6.46315 105.784 6.4978C105.774 6.53245 105.772 6.56869 105.777 6.60432C105.781 6.63996 105.793 6.67426 105.811 6.70517L107.558 9.73195C107.581 9.77283 107.594 9.81933 107.594 9.86674C107.595 9.91416 107.583 9.96081 107.56 10.002C107.537 10.0432 107.504 10.0774 107.464 10.1013C107.424 10.1252 107.378 10.1378 107.332 10.1379H106.246C106.199 10.1381 106.153 10.1252 106.112 10.1007C106.072 10.0762 106.038 10.0409 106.016 9.99861L104.295 6.78079C104.272 6.73843 104.239 6.70308 104.199 6.67844C104.158 6.65379 104.112 6.64076 104.065 6.64069ZM117.777 2.13096V9.86926C117.777 9.94058 117.75 10.009 117.7 10.0594C117.651 10.1098 117.585 10.1382 117.515 10.1383H116.423C116.383 10.1384 116.344 10.1293 116.308 10.1117C116.273 10.0942 116.241 10.0686 116.217 10.0368L112.162 4.81308C112.007 4.61408 111.695 4.72632 111.695 4.98104V9.86926C111.695 9.94065 111.667 10.0091 111.618 10.0595C111.568 10.11 111.502 10.1383 111.432 10.1383H110.412C110.343 10.1382 110.276 10.1098 110.227 10.0594C110.178 10.0089 110.151 9.94055 110.151 9.86926V2.13096C110.151 1.98211 110.268 1.86152 110.412 1.86152H111.495C111.575 1.86152 111.65 1.89893 111.7 1.96301L115.756 7.16724C115.91 7.36624 116.223 7.25401 116.223 6.99929V2.13136C116.223 1.98251 116.339 1.86192 116.485 1.86192H117.515C117.66 1.86192 117.777 1.98211 117.777 2.13096ZM129.779 2.13096V9.86926C129.779 9.94062 129.752 10.0091 129.702 10.0595C129.653 10.11 129.586 10.1383 129.517 10.1383H128.476C128.407 10.1383 128.34 10.11 128.291 10.0595C128.241 10.0091 128.214 9.94065 128.214 9.86926V5.38063C128.214 5.08571 127.818 5.00571 127.708 5.27874L125.838 9.97115C125.818 10.0205 125.785 10.0627 125.741 10.0924C125.698 10.1222 125.647 10.1382 125.595 10.1383H125.134C125.082 10.1382 125.031 10.1222 124.987 10.0923C124.944 10.0624 124.91 10.02 124.89 9.97035L123.03 5.27635C122.922 5.00293 122.525 5.08213 122.525 5.37784V9.86926C122.525 9.94065 122.497 10.0091 122.448 10.0595C122.399 10.11 122.332 10.1383 122.262 10.1383H121.222C121.152 10.1383 121.086 10.11 121.036 10.0595C120.987 10.0091 120.959 9.94065 120.959 9.86926V2.13096C120.959 1.98211 121.077 1.86152 121.222 1.86152H122.907C123.013 1.86152 123.108 1.92719 123.149 2.02788L125.12 6.92486C125.14 6.97417 125.173 7.01636 125.216 7.04607C125.259 7.07579 125.31 7.09171 125.362 7.09179C125.414 7.09188 125.465 7.07613 125.508 7.04656C125.551 7.01698 125.585 6.9749 125.605 6.92566L127.595 2.02709C127.615 1.97809 127.649 1.93623 127.692 1.90677C127.735 1.87732 127.786 1.86157 127.837 1.86152H129.517C129.662 1.86152 129.779 1.98211 129.779 2.13096ZM134.532 3.55859V5.03039C134.532 5.17884 134.65 5.29944 134.795 5.29944H137.133C137.278 5.29944 137.395 5.41963 137.395 5.56848V6.44209C137.395 6.51345 137.368 6.58188 137.318 6.63234C137.269 6.68279 137.202 6.71114 137.133 6.71114H134.795C134.725 6.71114 134.658 6.73953 134.609 6.79006C134.56 6.84059 134.532 6.90912 134.532 6.98058V8.44124C134.532 8.58969 134.65 8.70989 134.795 8.70989H137.522C137.666 8.70989 137.784 8.83088 137.784 8.97933V9.86886C137.784 9.90419 137.777 9.93919 137.764 9.97185C137.751 10.0045 137.731 10.0342 137.707 10.0592C137.683 10.0842 137.654 10.1041 137.622 10.1177C137.59 10.1312 137.556 10.1383 137.522 10.1383H133.229C133.194 10.1383 133.16 10.1313 133.128 10.1178C133.097 10.1042 133.068 10.0844 133.043 10.0594C133.019 10.0343 133 10.0046 132.986 9.97194C132.973 9.93926 132.967 9.90423 132.967 9.86886V2.13096C132.967 1.98211 133.085 1.86152 133.229 1.86152H137.522C137.666 1.86152 137.784 1.98211 137.784 2.13096V3.02049C137.784 3.05581 137.777 3.09078 137.764 3.12342C137.751 3.15606 137.731 3.18572 137.707 3.21071C137.683 3.2357 137.654 3.25553 137.622 3.26905C137.59 3.28258 137.556 3.28954 137.522 3.28954H134.795C134.725 3.28954 134.658 3.31787 134.609 3.36832C134.56 3.41876 134.532 3.4872 134.532 3.55859ZM148.231 2.13096V9.86926C148.231 9.90464 148.224 9.93967 148.211 9.97234C148.198 10.005 148.178 10.0347 148.154 10.0597C148.129 10.0847 148.1 10.1045 148.069 10.1179C148.037 10.1314 148.002 10.1384 147.968 10.1383H146.876C146.836 10.1383 146.797 10.1292 146.762 10.1117C146.726 10.0941 146.695 10.0685 146.671 10.0368L142.616 4.81308C142.461 4.61408 142.148 4.72632 142.148 4.98104V9.86926C142.148 9.94058 142.12 10.009 142.071 10.0594C142.022 10.1098 141.955 10.1382 141.886 10.1383H140.865C140.796 10.1382 140.729 10.1098 140.68 10.0594C140.631 10.0089 140.603 9.94055 140.603 9.86926V2.13096C140.603 1.98211 140.721 1.86152 140.866 1.86152H141.948C142.028 1.86152 142.103 1.89893 142.153 1.96301L146.208 7.16724C146.363 7.36624 146.676 7.25401 146.676 6.99929V2.13136C146.676 1.98251 146.793 1.86192 146.938 1.86192H147.968C148.113 1.86192 148.231 1.98211 148.231 2.13096Z" fill="black"/>
<path fill-rule="evenodd" clip-rule="evenodd" d="M156.109 3.28947H154.559C154.524 3.28947 154.49 3.29644 154.458 3.30999C154.426 3.32353 154.397 3.34339 154.373 3.36841C154.349 3.39344 154.329 3.42314 154.316 3.45583C154.303 3.48852 154.296 3.52355 154.296 3.55891V9.86919C154.296 9.94051 154.269 10.0089 154.219 10.0593C154.17 10.1097 154.104 10.1381 154.034 10.1382H152.999C152.929 10.1381 152.862 10.1097 152.813 10.0593C152.764 10.0089 152.736 9.94051 152.736 9.86919V3.55891C152.736 3.52355 152.73 3.48852 152.716 3.45583C152.703 3.42314 152.684 3.39344 152.66 3.36841C152.635 3.34339 152.606 3.32353 152.574 3.30999C152.543 3.29644 152.508 3.28947 152.474 3.28947H150.919C150.849 3.28947 150.783 3.26119 150.733 3.21083C150.684 3.16047 150.656 3.09214 150.656 3.02082V2.1309C150.656 1.98204 150.774 1.86145 150.919 1.86145H156.109C156.254 1.86145 156.372 1.98204 156.372 2.1309V3.02042C156.372 3.09181 156.344 3.16025 156.295 3.21069C156.245 3.26114 156.179 3.28947 156.109 3.28947Z" fill="black"/>
<path fill-rule="evenodd" clip-rule="evenodd" d="M168.464 4.50184C168.464 3.74246 167.992 3.21392 167.088 3.21392H165.701C165.632 3.21392 165.565 3.24231 165.516 3.29284C165.466 3.34337 165.439 3.4119 165.439 3.48336V5.5048C165.439 5.65325 165.556 5.77345 165.701 5.77345H167.088C167.992 5.77345 168.465 5.29426 168.465 4.50184H168.464ZM169.983 4.51856C169.983 6.00548 168.943 7.13142 167.324 7.13142H165.701C165.632 7.13142 165.565 7.15981 165.516 7.21034C165.466 7.26087 165.439 7.32941 165.439 7.40087V9.86926C165.439 9.9046 165.432 9.93961 165.419 9.97228C165.406 10.0049 165.386 10.0346 165.362 10.0596C165.338 10.0846 165.309 10.1044 165.277 10.1179C165.245 10.1314 165.211 10.1384 165.176 10.1383H164.136C164.101 10.1384 164.067 10.1314 164.035 10.1179C164.003 10.1044 163.974 10.0846 163.95 10.0596C163.926 10.0347 163.906 10.005 163.893 9.97231C163.88 9.93964 163.873 9.90462 163.873 9.86926V2.13057C163.873 1.98211 163.99 1.86152 164.136 1.86152H167.324C168.943 1.86152 169.983 3.05273 169.983 4.51856ZM174.084 5.08412C174.084 5.23257 174.201 5.35356 174.347 5.35356H175.565C176.316 5.35356 176.721 4.95954 176.721 4.29688C176.721 3.64495 176.316 3.21949 175.565 3.21949H174.347C174.312 3.21944 174.278 3.22636 174.246 3.23986C174.214 3.25335 174.185 3.27316 174.161 3.29815C174.136 3.32314 174.117 3.35282 174.104 3.38549C174.091 3.41816 174.084 3.45317 174.084 3.48854V5.08451V5.08412ZM175.242 6.64109H174.347C174.277 6.64109 174.21 6.66942 174.161 6.71986C174.112 6.77031 174.084 6.83874 174.084 6.91013V9.86886C174.084 9.90426 174.077 9.93932 174.064 9.97203C174.051 10.0047 174.031 10.0345 174.007 10.0595C173.983 10.0845 173.954 10.1044 173.922 10.1179C173.89 10.1314 173.856 10.1384 173.821 10.1383H172.781C172.746 10.1383 172.712 10.1313 172.68 10.1178C172.648 10.1042 172.619 10.0844 172.595 10.0594C172.571 10.0343 172.551 10.0046 172.538 9.97194C172.525 9.93925 172.518 9.90423 172.518 9.86886V2.13057C172.518 1.98211 172.635 1.86192 172.781 1.86192H175.67C177.33 1.86192 178.239 2.96079 178.239 4.31319C178.239 5.21824 177.786 5.94538 177.088 6.33383C177.057 6.35098 177.03 6.37431 177.008 6.40243C176.986 6.43055 176.97 6.46288 176.961 6.4975C176.952 6.53212 176.949 6.56831 176.954 6.60392C176.958 6.63953 176.97 6.67383 176.988 6.70477L178.734 9.73195C178.758 9.77278 178.77 9.81926 178.771 9.86669C178.771 9.91412 178.759 9.96081 178.737 10.002C178.714 10.0432 178.681 10.0775 178.641 10.1014C178.601 10.1252 178.555 10.1378 178.509 10.1379H177.423C177.376 10.138 177.329 10.1251 177.289 10.1006C177.248 10.0761 177.215 10.0408 177.192 9.99861L175.472 6.78079C175.449 6.7385 175.416 6.70324 175.375 6.67866C175.335 6.65409 175.289 6.64111 175.242 6.64109ZM187.505 5.99991C187.505 4.44254 186.333 3.24138 184.815 3.24138C183.302 3.24138 182.125 4.44254 182.125 5.99991C182.125 7.55728 183.302 8.75884 184.815 8.75884C186.333 8.75884 187.505 7.55728 187.505 5.99991ZM180.555 5.99991C180.555 3.58008 182.393 1.75406 184.815 1.75406C187.236 1.75406 189.075 3.58008 189.075 5.99991C189.075 8.41975 187.236 10.2462 184.815 10.2462C182.393 10.2462 180.555 8.41935 180.555 5.99991ZM194.401 8.71028C196.113 8.71028 196.943 7.75111 196.943 5.99991C196.943 4.24872 196.113 3.28994 194.401 3.28994H193.528C193.458 3.28994 193.392 3.31828 193.342 3.36874C193.293 3.41919 193.266 3.48763 193.266 3.55898V8.44084C193.266 8.58969 193.383 8.71028 193.528 8.71028H194.401ZM191.706 2.13057C191.706 1.98211 191.823 1.86192 191.968 1.86192H194.468C197.148 1.86192 198.566 3.49371 198.566 5.99991C198.566 8.50571 197.148 10.1383 194.468 10.1383H191.968C191.934 10.1383 191.899 10.1313 191.868 10.1178C191.836 10.1042 191.807 10.0844 191.782 10.0594C191.758 10.0343 191.739 10.0046 191.726 9.97194C191.712 9.93925 191.706 9.90423 191.706 9.86886V2.13057ZM201.082 7.27152V2.13096C201.082 1.98171 201.199 1.86152 201.344 1.86152H202.385C202.529 1.86152 202.647 1.98171 202.647 2.13096V7.02356C202.647 8.34373 203.388 8.82372 204.36 8.82372C205.336 8.82372 206.077 8.34373 206.077 7.02356V2.13096C206.077 1.98171 206.195 1.86152 206.339 1.86152H207.386C207.531 1.86152 207.648 1.98171 207.648 2.13096V7.27152C207.648 9.24918 206.229 10.2458 204.36 10.2458C202.5 10.2458 201.081 9.24918 201.081 7.27152H201.082ZM210.115 5.99991C210.115 3.58008 211.948 1.75406 214.376 1.75406C215.466 1.75406 216.505 2.16957 217.253 2.84657C217.281 2.87141 217.304 2.90198 217.319 2.9363C217.335 2.97061 217.343 3.00791 217.344 3.04579C217.345 3.08367 217.338 3.12128 217.324 3.1562C217.309 3.19113 217.288 3.22258 217.261 3.24854L216.54 3.94186C216.493 3.98788 216.43 4.01385 216.365 4.01459C216.299 4.01533 216.236 3.99078 216.187 3.94584C215.712 3.50127 215.063 3.24138 214.376 3.24138C212.857 3.24138 211.686 4.43737 211.686 5.99991C211.686 7.56246 212.857 8.75884 214.375 8.75884C215.063 8.75884 215.712 8.49855 216.187 8.05398C216.236 8.00893 216.299 7.98431 216.365 7.98505C216.43 7.98579 216.493 8.01182 216.541 8.05796L217.261 8.75168C217.288 8.77764 217.309 8.80909 217.324 8.84402C217.338 8.87894 217.345 8.91656 217.344 8.95443C217.343 8.99231 217.335 9.02961 217.319 9.06392C217.304 9.09824 217.281 9.12881 217.253 9.15365C216.505 9.83025 215.466 10.2462 214.375 10.2462C211.948 10.2462 210.115 8.41935 210.115 5.99991ZM224.591 3.28954H223.041C223.007 3.28954 222.973 3.29651 222.941 3.31006C222.909 3.3236 222.88 3.34345 222.856 3.36848C222.831 3.39351 222.812 3.42321 222.799 3.4559C222.786 3.48859 222.779 3.52362 222.779 3.55898V9.86926C222.779 9.94054 222.751 10.0089 222.702 10.0592C222.653 10.1096 222.586 10.1379 222.517 10.1379H221.481C221.447 10.138 221.413 10.1311 221.381 10.1176C221.349 10.1041 221.32 10.0843 221.296 10.0594C221.271 10.0344 221.252 10.0048 221.239 9.97219C221.225 9.93956 221.219 9.90459 221.219 9.86926V3.55898C221.219 3.52364 221.212 3.48862 221.199 3.45593C221.186 3.42325 221.166 3.39354 221.142 3.3685C221.118 3.34347 221.089 3.32361 221.057 3.31006C221.025 3.29651 220.991 3.28954 220.957 3.28954H219.401C219.331 3.28943 219.265 3.26104 219.216 3.21059C219.166 3.16015 219.139 3.09178 219.139 3.02049V2.13096C219.139 1.98171 219.256 1.86152 219.401 1.86152H224.591C224.736 1.86152 224.854 1.98171 224.854 2.13096V3.02049C224.854 3.09188 224.826 3.16032 224.777 3.21076C224.728 3.26121 224.661 3.28954 224.591 3.28954ZM226.751 8.73496L227.319 8.00742C227.342 7.97831 227.37 7.95436 227.402 7.93711C227.434 7.91986 227.47 7.90969 227.506 7.90725C227.542 7.90481 227.578 7.91017 227.612 7.92296C227.646 7.93576 227.677 7.95571 227.703 7.98155C228.246 8.51845 228.993 8.88262 229.65 8.88262C230.28 8.88262 230.737 8.5491 230.737 7.96125C230.737 7.22296 230.017 6.94794 229.098 6.53363C228.042 6.05921 226.929 5.52032 226.929 4.05967C226.929 2.59424 228.042 1.75366 229.418 1.75366C230.329 1.75366 231.186 2.10271 231.889 2.6798C231.997 2.76816 232.013 2.93054 231.931 3.04477L231.422 3.75241C231.402 3.78159 231.375 3.80615 231.345 3.82461C231.315 3.84307 231.281 3.85504 231.246 3.8598C231.211 3.86456 231.176 3.86201 231.142 3.85231C231.108 3.84261 231.076 3.82596 231.049 3.80335C230.507 3.34207 229.894 3.1172 229.382 3.1172C228.872 3.1172 228.468 3.38148 228.468 3.89848C228.468 4.57189 229.161 4.83576 230.091 5.2457C231.152 5.72529 232.302 6.31791 232.302 7.85896C232.302 9.443 231.084 10.2406 229.644 10.2406C228.606 10.2406 227.541 9.81314 226.785 9.10709C226.734 9.06114 226.702 8.99701 226.696 8.92782C226.69 8.85864 226.71 8.78964 226.751 8.73496Z" fill="black"/>
</svg>
