<svg width="480" height="400" viewBox="0 0 480 400" fill="none" xmlns="http://www.w3.org/2000/svg">
<rect width="325.3" height="231.607" rx="11.2758" transform="matrix(-1 0 0 1 381.573 71.386)" fill="#E9EAEE"/>
<path d="M381.573 150.668V84.0654C381.637 77.1288 376.024 71.453 369.035 71.386H68.8117C61.8221 71.453 56.2097 77.1288 56.2738 84.0654V290.314C56.2097 297.251 61.8221 302.926 68.8117 302.993H369.035C376.024 302.926 381.637 297.251 381.573 290.314V206.356" stroke="black" stroke-width="1.37954"/>
<path d="M68.8117 71.386H369.035C376.024 71.4526 381.637 77.0919 381.573 83.9839V91.8219H56.2738V83.9839C56.2097 77.0919 61.8221 71.4526 68.8117 71.386V71.386Z" fill="#465173" stroke="black" stroke-width="1.37954"/>
<path d="M322.545 193.453L322.734 192.925L322.255 192.632C312.099 186.444 305.051 174.369 305.051 160.634V141.514C305.051 121.221 320.197 104.795 338.668 104.795H395.694C414.165 104.795 429.312 121.221 429.312 141.514V160.468C429.312 180.761 414.165 197.187 395.694 197.187H338.668C337.444 197.187 336.421 197.186 335.254 197.027L334.969 196.988L334.741 197.164L320.255 208.303L320.247 208.31L320.239 208.316C319.906 208.588 319.588 208.671 319.311 208.655C319.026 208.639 318.736 208.515 318.483 208.292C317.972 207.84 317.692 207.049 317.972 206.254C317.972 206.254 317.972 206.253 317.972 206.253L322.545 193.453Z" fill="#BABECB" stroke="black" stroke-width="1.37954"/>
<path d="M342.326 155.149C344.094 155.149 345.528 153.585 345.528 151.657C345.528 149.729 344.094 148.166 342.326 148.166C340.558 148.166 339.124 149.729 339.124 151.657C339.124 153.585 340.558 155.149 342.326 155.149Z" fill="white"/>
<path d="M367.182 155.149C368.95 155.149 370.384 153.585 370.384 151.657C370.384 149.729 368.95 148.166 367.182 148.166C365.413 148.166 363.979 149.729 363.979 151.657C363.979 153.585 365.413 155.149 367.182 155.149Z" fill="white"/>
<path d="M392.037 155.149C393.805 155.149 395.239 153.585 395.239 151.657C395.239 149.729 393.805 148.166 392.037 148.166C390.269 148.166 388.835 149.729 388.835 151.657C388.835 153.585 390.269 155.149 392.037 155.149Z" fill="white"/>
<mask id="mask0_357_64351" style="mask-type:alpha" maskUnits="userSpaceOnUse" x="50" y="53" width="318" height="280">
<path d="M50.001 57.6889C50.001 55.5571 51.7292 53.8289 53.861 53.8289H363.436C365.568 53.8289 367.296 55.5571 367.296 57.6889V299.851C367.296 301.983 365.568 303.711 363.436 303.711H346.002C344.554 303.711 343.229 304.521 342.568 305.809L329.843 330.599C328.604 333.012 325.328 333.429 323.525 331.402L300.04 305.006C299.307 304.182 298.258 303.711 297.156 303.711H53.861C51.7292 303.711 50.001 301.983 50.001 299.851V271.812V57.6889Z" fill="#D9D9D9"/>
</mask>
<g mask="url(#mask0_357_64351)">
<path d="M232.292 429.975L232.292 429.977L232.291 429.986L232.284 430.052L232.256 430.315C232.232 430.548 232.196 430.893 232.149 431.343C232.055 432.243 231.917 433.564 231.743 435.247C231.395 438.614 230.902 443.431 230.322 449.228C229.161 460.824 227.649 476.343 226.246 492.04C224.843 507.739 223.55 523.608 222.826 535.904C222.464 542.055 222.245 547.298 222.224 551.176C222.214 553.117 222.254 554.697 222.348 555.871C222.395 556.459 222.454 556.927 222.522 557.278C222.556 557.453 222.591 557.588 222.623 557.688C222.638 557.738 222.652 557.774 222.664 557.8C222.674 557.825 222.68 557.836 222.68 557.836L222.68 557.835C222.869 558.145 222.866 558.534 222.671 558.84C222.476 559.145 222.124 559.313 221.764 559.272L206.974 557.579L200.661 559.247C200.598 559.263 200.534 559.273 200.469 559.277L164.246 561.17C163.962 561.185 163.687 561.071 163.496 560.861C163.304 560.65 163.217 560.365 163.259 560.084C176.58 470.167 172.58 423.042 169.713 389.283C168.98 380.645 168.321 372.882 168.045 365.501C158.422 333.223 172.097 314.17 180.436 308.603C180.565 308.517 180.713 308.464 180.867 308.448L237.742 302.739C238.263 302.686 238.727 303.066 238.78 303.587C241.034 325.95 239.405 357.572 237.222 383.553C236.13 396.554 234.897 408.162 233.937 416.519C233.458 420.698 233.046 424.064 232.754 426.387C232.608 427.548 232.492 428.448 232.413 429.059C232.373 429.364 232.343 429.596 232.322 429.753L232.298 429.93L232.292 429.975Z" fill="#BABECB" stroke="black" stroke-width="1.89583" stroke-linecap="round" stroke-linejoin="round"/>
<mask id="mask1_357_64351" style="mask-type:alpha" maskUnits="userSpaceOnUse" x="163" y="303" width="76" height="258">
<path d="M168.489 365.346C158.911 333.372 172.481 314.72 180.463 309.391L237.338 303.682C241.828 348.217 231.85 429.864 231.85 429.864C231.85 429.864 218.878 552.62 222.371 558.33L206.406 556.617L222.568 381.139H221.57L216.083 425.086L199.92 558.33L163.698 560.223C180.463 447.059 169.82 401.506 168.489 365.346Z" fill="#ACC7FA"/>
</mask>
<g mask="url(#mask1_357_64351)">
<path d="M207.102 299.691C198.122 350.579 207.102 407.952 187.645 535.671" stroke="white" stroke-width="3.99121"/>
<path d="M231.05 299.691C240.529 356.565 221.571 403.961 214.586 535.671" stroke="white" stroke-width="2.99341"/>
<path d="M191.137 299.691C166.691 344.093 195.627 385.003 171.68 535.671" stroke="white" stroke-width="3.99121"/>
</g>
<path d="M202.414 326.52C200.418 335.656 192.835 352.213 178.467 345.362" stroke="black" stroke-width="1.89583" stroke-linecap="round" stroke-linejoin="round"/>
<path d="M206.905 556.046L216.883 424.725L201.417 557.188L206.905 556.046Z" fill="black"/>
<path d="M221.872 324.236C225.863 372.768 216.883 424.725 216.883 424.725M216.883 424.725L206.905 556.046L201.417 557.188L216.883 424.725Z" stroke="black" stroke-width="1.89583" stroke-linecap="round" stroke-linejoin="round"/>
<path d="M209.236 182.933C241.166 185.927 252.807 177.778 261.62 174.452C264.414 187.224 273.095 201.725 277.086 207.38C264.714 211.77 238.006 210.207 226.198 208.876C246.953 243.6 253.472 285.208 254.137 307.16C238.671 301.672 210.733 304.665 200.256 309.654C191.874 313.646 172.151 310.652 163.337 308.657C172.916 303.468 175.809 269.41 175.809 248.788C169.823 245.296 154.856 242.802 144.878 240.307C151.263 216.759 174.812 188.255 185.787 176.947L209.236 182.933Z" fill="#465173"/>
<path d="M175.809 248.788C169.823 245.296 154.856 242.802 144.878 240.307C151.263 216.759 174.812 188.255 185.787 176.947L209.236 182.933C241.166 185.927 252.807 177.778 261.62 174.452C264.414 187.224 273.095 201.725 277.086 207.38C264.714 211.77 238.006 210.207 226.198 208.876M175.809 248.788C175.809 269.41 172.916 303.468 163.337 308.657C172.151 310.652 191.874 313.646 200.256 309.654C210.733 304.665 238.671 301.672 254.137 307.16C253.472 285.208 246.953 243.6 226.198 208.876M175.809 248.788L185.787 253.777C185.787 235.332 185.787 218.869 187.783 204.386M226.198 208.876C224.593 206.082 220.901 202.072 219.076 199.91" stroke="black" stroke-width="1.37954" stroke-linecap="round" stroke-linejoin="round"/>
<path d="M247.651 305.164C252.839 289.998 245.821 261.427 242.662 245.795C247.85 261.361 253.471 291.029 254.635 307.16L247.651 305.164Z" fill="black" stroke="black" stroke-width="1.89583" stroke-linecap="round" stroke-linejoin="round"/>
<path d="M278.084 206.881C280.08 206.482 280.326 199.73 279.495 195.905C277.499 196.404 274.007 196.903 271.513 197.402C273.009 200.894 276.089 207.28 278.084 206.881Z" fill="black" stroke="black" stroke-width="1.89583" stroke-linecap="round" stroke-linejoin="round"/>
<path d="M144.375 240.892C154.83 247.382 171.315 261.749 185.285 254.799C172.33 249.7 146.011 239.78 144.375 240.892Z" fill="black" stroke="black" stroke-width="1.89583" stroke-linecap="round" stroke-linejoin="round"/>
<path d="M288.562 157.489C287.365 164.274 271.1 171.292 262.12 174.452C262.12 185.228 269.105 193.244 272.597 196.404C278.584 196.404 305.025 184.43 307.52 170.461C308.923 162.603 307.188 114.916 304.527 93.6299C307.025 91.6868 310.874 74.1874 298.401 77.6797C298.401 67.2028 296.904 59.7192 294.41 61.7147C292.73 63.0585 291.652 72.2028 291.915 77.8287C290.748 78.6383 289.121 80.0435 286.926 82.1698C283.837 85.1632 286.926 86.161 288.562 91.1353C291.416 95.1413 290.059 149.008 288.562 157.489Z" fill="#F5B896" stroke="black" stroke-width="1.37954" stroke-linejoin="round"/>
<path d="M218.169 278.452C204.822 261.345 234.726 217.371 251.346 197.522C254.328 193.877 266.182 201.05 269.478 201.834C272.775 202.618 281.173 200.261 286.942 201.633C292.711 203.004 289.69 208.382 301.857 212.145C311.59 215.157 306.831 221.746 303.234 224.664C259.823 251.958 258.277 274.857 260.771 287.828L218.169 278.452Z" fill="#E74F4F" stroke="black" stroke-width="1.37954" stroke-linecap="round" stroke-linejoin="round"/>
<path d="M283.495 223.453L256.689 215.337" stroke="black" stroke-width="1.37954" stroke-linecap="round" stroke-linejoin="round"/>
<path d="M277.414 230.715L250.608 222.599" stroke="black" stroke-width="1.37954" stroke-linecap="round" stroke-linejoin="round"/>
<path d="M259.898 288.038C273.398 289.855 275.698 280.185 275.16 275.123L227.358 263.756C227.768 270.82 221.201 276.224 217.865 278.043L259.898 288.038Z" fill="#E74F4F" stroke="black" stroke-width="1.37954" stroke-linecap="round" stroke-linejoin="round"/>
<path d="M145.099 298.428C163.06 305.912 207.737 267.478 213.088 262.997C227.693 263.985 239.525 254.277 241.525 250.784C243.398 247.513 240.527 246.854 238.331 247.821C240.181 246.444 242.22 244.293 241.525 242.303C240.639 239.767 239.03 240.205 237.379 241.075C241.246 235.239 237.035 234.955 234.54 236.316C229.052 239.31 227.057 240.205 224.063 240.205C225.061 235.725 226.494 232.73 222.068 234.224C218.759 235.341 210.524 244.046 209.595 249.498C196.125 255.912 179.164 267.262 174.175 269.258C175.172 267.262 180.161 252.78 180.161 252.78C180.161 252.78 167.689 243.524 153.219 243.524C149.228 249.012 133.126 291.943 145.099 298.428Z" fill="#F5B896"/>
<path d="M174.175 269.258C179.164 267.262 196.125 255.912 209.595 249.498C210.524 244.046 218.759 235.341 222.068 234.224C226.494 232.73 225.061 235.725 224.063 240.205C227.057 240.205 229.052 239.31 234.54 236.316C237.035 234.955 241.246 235.239 237.379 241.075M174.175 269.258C175.172 267.262 180.161 252.78 180.161 252.78C180.161 252.78 167.689 243.524 153.219 243.524C149.228 249.012 133.126 291.943 145.099 298.428C163.06 305.912 207.737 267.478 213.088 262.997C227.693 263.985 239.525 254.277 241.525 250.784C243.81 246.792 239.031 246.69 237.035 248.687M174.175 269.258L158.709 277.24M237.379 241.075C239.03 240.205 240.639 239.767 241.525 242.303C242.392 244.786 239.003 247.52 237.035 248.687M237.379 241.075C234.041 244.196 228.292 246.44 224.063 246.691M237.035 248.687C235.067 249.853 229.219 252.78 226.059 252.78" stroke="black" stroke-width="1.37954" stroke-linecap="round" stroke-linejoin="round"/>
<path d="M297.206 83.4292C297.806 85.2146 301.827 84.2993 304.529 83.2313C307.23 82.1632 307.431 80.8762 306.989 79.5614C306.547 78.2466 305.629 77.402 302.927 78.47C300.226 79.5381 296.605 81.6437 297.206 83.4292Z" fill="#F5B896" stroke="black" stroke-width="1.89583" stroke-linecap="round" stroke-linejoin="round"/>
<path d="M298.007 87.7717C298.608 89.5572 302.628 88.6419 305.33 87.5738C308.032 86.5058 308.233 85.2187 307.79 83.9039C307.348 82.5892 306.43 81.7445 303.729 82.8126C301.027 83.8806 297.407 85.9862 298.007 87.7717Z" fill="#F5B896" stroke="black" stroke-width="1.89583" stroke-linecap="round" stroke-linejoin="round"/>
<path d="M238.236 152.154V113.738C238.236 113.738 234.245 93.7706 209.799 93.2717C185.353 92.7728 182.858 112.729 182.858 112.729C182.858 122.285 185.883 127.651 189.629 130.559C185.503 128.077 179.255 126.114 177.869 132.697C176.273 140.28 184.521 143.173 188.845 143.672C192.038 160.835 188.845 173.44 186.849 177.598C190.841 185.58 204.81 184.25 211.296 182.587V170.114C238.037 170.912 238.236 161.134 238.236 152.154Z" fill="#F5B896" stroke="black" stroke-width="1.37954" stroke-linejoin="round"/>
<path d="M210.797 170.114C207.301 169.955 201.559 168.916 200.01 166.038C199.945 165.897 199.882 165.758 199.821 165.624C199.874 165.766 199.938 165.904 200.01 166.038C202.433 171.321 207.687 181.31 210.797 182.087V170.114Z" fill="black" stroke="black" stroke-width="1.89583" stroke-linecap="round" stroke-linejoin="round"/>
<path d="M192.302 132.685V116.222C195.331 105.246 203.848 116.721 215.786 116.721C225.796 116.721 234.744 106.743 238.7 116.721C245.221 111.233 247.751 99.7581 243.226 95.7668C238.7 91.7755 234.245 95.2679 233.746 95.7668C233.913 93.2723 232.749 87.7845 226.762 85.7889C220.775 83.7933 218.613 88.1169 218.28 90.279C217.449 88.4497 211.795 83.2944 206.307 84.2922C200.819 85.29 200.819 89.9462 200.32 91.7755C199.001 90.7776 197.327 86.2876 193.834 87.2854C190.342 88.2832 190.663 93.7712 190.342 94.7689C189.689 94.1038 186.678 91.3764 183.856 91.7755C180.328 92.2744 178.368 98.7602 178.368 102.252C177.171 114.226 180.507 124.537 182.324 128.195C185.916 127.397 190.473 130.856 192.302 132.685Z" fill="black" stroke="black" stroke-width="1.89583" stroke-linecap="round" stroke-linejoin="round"/>
<path d="M209.799 110.235L207.804 107.241" stroke="white" stroke-width="1.4967" stroke-linecap="round" stroke-linejoin="round"/>
<path d="M185.852 112.131L183.156 109.748" stroke="white" stroke-width="1.4967" stroke-linecap="round" stroke-linejoin="round"/>
<path d="M215.041 106.384L216.531 103.109" stroke="white" stroke-width="1.4967" stroke-linecap="round" stroke-linejoin="round"/>
<path d="M190.784 104.802L191.385 101.255" stroke="white" stroke-width="1.4967" stroke-linecap="round" stroke-linejoin="round"/>
<path d="M225.76 106.501L224.168 103.275" stroke="white" stroke-width="1.4967" stroke-linecap="round" stroke-linejoin="round"/>
<path d="M202.158 98.6744L199.793 95.9636" stroke="white" stroke-width="1.4967" stroke-linecap="round" stroke-linejoin="round"/>
<path d="M234.725 105.461L236.388 102.271" stroke="white" stroke-width="1.4967" stroke-linecap="round" stroke-linejoin="round"/>
<path d="M210.797 94.2699L211.349 91.8633" stroke="white" stroke-width="1.4967" stroke-linecap="round" stroke-linejoin="round"/>
<path d="M225.593 95.7843L226.383 92.2747" stroke="white" stroke-width="1.4967" stroke-linecap="round" stroke-linejoin="round"/>
<path d="M225.062 129.353C227.557 128.355 232.047 129.951 232.047 134.342" stroke="black" stroke-width="1.4967" stroke-linecap="round" stroke-linejoin="round"/>
<path d="M211.093 130.351C209.597 129.852 206.404 130.949 205.605 133.344" stroke="black" stroke-width="1.4967" stroke-linecap="round" stroke-linejoin="round"/>
<path d="M204.109 146.528C204.109 150.519 206.603 154.09 210.253 156.175C215.841 159.368 222.568 158.502 226.218 155.677" stroke="black" stroke-width="1.4967" stroke-linecap="round" stroke-linejoin="round"/>
<circle cx="1.4967" cy="1.4967" r="1.4967" transform="matrix(-1 0 0 1 212.591 134.235)" fill="black"/>
<circle cx="1.4967" cy="1.4967" r="1.4967" transform="matrix(-1 0 0 1 228.556 133.226)" fill="black"/>
<path d="M215.294 140.716C216.097 138.08 218.885 136.595 221.521 137.398C224.156 138.201 225.642 140.988 224.839 143.624C224.363 145.186 223.191 146.343 221.766 146.861" stroke="black" stroke-width="1.4967" stroke-linecap="round" stroke-linejoin="round"/>
<path d="M204.651 184.337C193.875 185.136 187.19 180.513 186.691 175.856C188.686 173.861 185.194 172.863 184.196 175.857C182.367 181.344 172.721 183.838 184.196 190.823C195.671 197.808 195.671 198.473 203.154 200.302C207.545 199.903 200.66 189.326 204.651 184.337Z" fill="white" stroke="black" stroke-width="1.37954" stroke-linecap="round" stroke-linejoin="round"/>
<path d="M213.132 196.311C211.136 190.823 207.81 186.499 205.149 183.839C211.934 183.839 210.305 181.51 210.138 178.351C213.132 178.351 215.826 181.943 216.624 184.338C217.422 186.732 220.116 189.327 222.611 189.327C221.414 190.923 217.289 193.484 213.132 196.311Z" fill="white" stroke="black" stroke-width="1.37954" stroke-linecap="round" stroke-linejoin="round"/>
<path d="M205.149 185.335C209.64 191.655 215.626 210.58 217.622 217.764" stroke="black" stroke-width="1.37954" stroke-linecap="round" stroke-linejoin="round"/>
</g>
</svg>
