<svg width="233" height="12" viewBox="0 0 233 12" fill="none" xmlns="http://www.w3.org/2000/svg">
<path fill-rule="evenodd" clip-rule="evenodd" d="M4.82485 10.7901C4.86353 10.7219 4.87528 10.641 4.85767 10.5641C4.84006 10.4873 4.79443 10.4202 4.73015 10.3768C3.3402 9.44253 2.42151 7.83181 2.42151 5.99982C2.42151 4.16807 3.3402 2.55736 4.73015 1.62312C4.7944 1.57965 4.84001 1.51261 4.85762 1.43575C4.87523 1.35888 4.86351 1.27802 4.82485 1.20974L4.23151 0.155631C4.21079 0.119024 4.18304 0.0871151 4.14994 0.0618399C4.11683 0.0365646 4.07907 0.0184493 4.03894 0.00859254C3.99881 -0.00126423 3.95714 -0.0026571 3.91647 0.0044984C3.8758 0.0116539 3.83697 0.0272086 3.80233 0.0502194C1.89467 1.30713 0.629883 3.50144 0.629883 5.99994C0.629883 8.49844 1.89455 10.6926 3.80233 11.9497C3.83697 11.9727 3.87579 11.9882 3.91645 11.9954C3.95712 12.0025 3.99878 12.0011 4.0389 11.9913C4.07903 11.9814 4.11679 11.9633 4.1499 11.9381C4.183 11.9128 4.21077 11.881 4.23151 11.8444L4.82485 10.7901Z" fill="#1361F0"/>
<path fill-rule="evenodd" clip-rule="evenodd" d="M10.8107 0.15554L10.2175 1.2099C10.1789 1.27813 10.1672 1.35893 10.1847 1.43575C10.2023 1.51256 10.2479 1.57957 10.3121 1.62303C11.702 2.55726 12.6206 4.1681 12.6206 5.99997C12.6206 7.83184 11.702 9.44256 10.3121 10.3769C10.2479 10.4204 10.2023 10.4874 10.1847 10.5642C10.1672 10.641 10.1789 10.7218 10.2175 10.79L10.8107 11.8443C10.8314 11.8809 10.8592 11.9128 10.8923 11.938C10.9254 11.9633 10.9632 11.9814 11.0033 11.9913C11.0434 12.0011 11.0851 12.0025 11.1258 11.9954C11.1664 11.9882 11.2053 11.9727 11.2399 11.9497C13.1478 10.6927 14.4122 8.49848 14.4122 5.99997C14.4122 3.50147 13.1476 1.30728 11.2399 0.050129C11.2053 0.0271431 11.1664 0.0116116 11.1258 0.0044758C11.0851 -0.00265998 11.0434 -0.00125141 11.0033 0.00861612C10.9632 0.0184837 10.9255 0.0366047 10.8924 0.0618808C10.8593 0.087157 10.8315 0.119062 10.8108 0.155662" fill="#1361F0"/>
<path fill-rule="evenodd" clip-rule="evenodd" d="M27.6187 6.00016C27.6187 4.44279 26.447 3.24123 24.9291 3.24123C23.4159 3.24123 22.2395 4.44279 22.2395 6.00016C22.2395 7.55753 23.4159 8.75869 24.9291 8.75869C26.4473 8.75869 27.6187 7.55753 27.6187 6.00016ZM20.6689 6.00016C20.6689 3.58032 22.5069 1.75391 24.9291 1.75391C27.3502 1.75391 29.1893 3.58072 29.1893 6.00016C29.1893 8.41999 27.3502 10.246 24.9291 10.246C22.5069 10.246 20.6689 8.41999 20.6689 6.00016ZM36.411 4.50209C36.411 3.74271 35.9381 3.21416 35.0344 3.21416H33.6477C33.5781 3.21416 33.5113 3.24255 33.462 3.29308C33.4127 3.34361 33.3851 3.41215 33.3851 3.48361V5.50505C33.3851 5.6535 33.503 5.7737 33.6477 5.7737H35.0344C35.9385 5.7737 36.411 5.29451 36.411 4.50209ZM37.9293 4.51801C37.9293 6.00573 36.8887 7.13167 35.2711 7.13167H33.6477C33.5781 7.13167 33.5113 7.16006 33.462 7.21059C33.4127 7.26112 33.3851 7.32965 33.3851 7.40111V9.8695C33.3851 9.90482 33.3784 9.9398 33.3652 9.97244C33.3521 10.0051 33.3328 10.0347 33.3085 10.0597C33.2842 10.0847 33.2553 10.1045 33.2235 10.1181C33.1917 10.1316 33.1576 10.1386 33.1232 10.1386H32.0822C32.0477 10.1386 32.0136 10.1317 31.9817 10.1182C31.9498 10.1047 31.9209 10.0849 31.8965 10.0599C31.8721 10.0349 31.8527 10.0052 31.8395 9.97256C31.8263 9.93989 31.8195 9.90487 31.8195 9.8695V2.13081C31.8195 1.98236 31.9371 1.86176 32.0822 1.86176H35.2711C36.889 1.86176 37.9293 3.05218 37.9293 4.51801ZM42.0307 3.55923V5.03023C42.0307 5.17869 42.1475 5.29968 42.293 5.29968H44.6307C44.7758 5.29968 44.8934 5.41988 44.8934 5.56913V6.44234C44.8934 6.5138 44.8657 6.58233 44.8164 6.63286C44.7672 6.68339 44.7004 6.71178 44.6307 6.71178H42.293C42.2586 6.71173 42.2245 6.71864 42.1926 6.73211C42.1608 6.74558 42.1318 6.76535 42.1074 6.7903C42.0831 6.81525 42.0637 6.84488 42.0505 6.8775C42.0372 6.91012 42.0304 6.9451 42.0303 6.98043V8.44109C42.0303 8.58994 42.1475 8.71053 42.293 8.71053H45.0198C45.1646 8.71053 45.2821 8.83113 45.2821 8.97918V9.86911C45.2821 9.9405 45.2545 10.009 45.2053 10.0595C45.1562 10.11 45.0894 10.1384 45.0198 10.1386H40.7271C40.6926 10.1386 40.6585 10.1316 40.6266 10.118C40.5948 10.1045 40.5658 10.0846 40.5415 10.0596C40.5171 10.0346 40.4978 10.0049 40.4846 9.97219C40.4715 9.9395 40.4647 9.90447 40.4648 9.86911V2.13081C40.4648 1.98236 40.5824 1.86216 40.7271 1.86216H45.0195C45.1642 1.86216 45.2817 1.98236 45.2817 2.13081V3.02034C45.2817 3.09173 45.2541 3.16021 45.2049 3.21073C45.1558 3.26124 45.0891 3.28968 45.0195 3.28978H42.2926C42.223 3.28978 42.1562 3.31817 42.1069 3.3687C42.0576 3.41923 42.0307 3.48777 42.0307 3.55923ZM55.7293 2.13081V9.86911C55.7293 9.94057 55.7016 10.0091 55.6523 10.0596C55.6031 10.1102 55.5362 10.1386 55.4666 10.1386H54.374C54.3344 10.1386 54.2954 10.1295 54.2598 10.1118C54.2242 10.0942 54.1929 10.0685 54.1684 10.0367L50.1138 4.81333C49.9586 4.61433 49.6463 4.72616 49.6463 4.98128V9.86911C49.6463 9.94057 49.6186 10.0091 49.5693 10.0596C49.5201 10.1102 49.4533 10.1386 49.3836 10.1386H48.3644C48.2948 10.1384 48.228 10.11 48.1789 10.0595C48.1297 10.009 48.1021 9.9405 48.1021 9.86911V2.13081C48.1021 1.98236 48.2192 1.86176 48.3644 1.86176H49.4465C49.5264 1.86176 49.6017 1.89918 49.6513 1.96286L53.707 7.16749C53.8618 7.36649 54.1746 7.25425 54.1746 7.00033V2.13041C54.1746 1.98196 54.2914 1.86137 54.4365 1.86137H55.4666C55.6113 1.86137 55.7293 1.98236 55.7293 2.13081Z" fill="black"/>
<path fill-rule="evenodd" clip-rule="evenodd" d="M71.7495 5.98941C71.7495 8.41959 69.9166 10.246 67.4897 10.246C65.0674 10.246 63.2295 8.4192 63.2295 6.00016C63.2295 3.58032 65.0674 1.7543 67.4897 1.7543C68.8826 1.7543 70.0838 2.36165 70.8474 3.33237C70.8718 3.3631 70.8894 3.39895 70.8989 3.4374C70.9084 3.47586 70.9096 3.51598 70.9023 3.55495C70.8951 3.59391 70.8796 3.63078 70.857 3.66294C70.8343 3.69511 70.8051 3.72179 70.7713 3.74112L69.8712 4.25095C69.8194 4.28122 69.7591 4.29239 69.7003 4.28261C69.6415 4.27284 69.5878 4.2427 69.548 4.19722C69.0591 3.61216 68.327 3.24123 67.4839 3.24123C65.9765 3.24123 64.8001 4.4213 64.8001 6.03757C64.8001 7.55235 65.8454 8.75909 67.5106 8.75909C68.6952 8.75909 69.5755 8.15094 69.9612 7.18659C70.0306 7.01147 69.8991 6.81924 69.7148 6.81924H68.2404C68.206 6.81924 68.1718 6.81227 68.14 6.79872C68.1081 6.78518 68.0792 6.76532 68.0548 6.7403C68.0305 6.71527 68.0112 6.68556 67.998 6.65288C67.9848 6.62019 67.9781 6.58516 67.9782 6.54979V5.76295C67.9782 5.6141 68.0957 5.49351 68.2404 5.49351H71.4782C71.6175 5.49351 71.7304 5.60375 71.7405 5.74584C71.7464 5.82384 71.7495 5.90504 71.7495 5.98941ZM80.6788 6.00016C80.6788 4.44279 79.507 3.24163 77.9892 3.24163C76.4764 3.24163 75.2996 4.44279 75.2996 6.00016C75.2996 7.55753 76.4764 8.75869 77.9892 8.75869C79.507 8.75869 80.6788 7.55753 80.6788 6.00016ZM73.729 6.00016C73.729 3.58032 75.5673 1.75391 77.9892 1.75391C80.4103 1.75391 82.2494 3.58072 82.2494 6.00016C82.2494 8.41999 80.4103 10.2464 77.9892 10.2464C75.5673 10.2464 73.729 8.41959 73.729 6.00016ZM91.2116 2.22633L88.3533 9.96463C88.3345 10.0157 88.301 10.0596 88.2573 10.0907C88.2135 10.1218 88.1616 10.1384 88.1085 10.1386H86.8525C86.7993 10.1385 86.7473 10.1219 86.7035 10.0908C86.6597 10.0597 86.6261 10.0157 86.6073 9.96463L83.7536 2.22633C83.7386 2.18557 83.7335 2.14168 83.7386 2.09843C83.7438 2.05519 83.7591 2.01387 83.7833 1.97803C83.8074 1.94218 83.8397 1.91288 83.8773 1.89263C83.9149 1.87238 83.9567 1.86179 83.9992 1.86176H85.0895C85.2 1.86176 85.299 1.9334 85.3362 2.04046L87.2335 7.49425C87.3166 7.73305 87.6448 7.73305 87.7274 7.49464L89.6294 2.04046C89.6476 1.98815 89.6811 1.9429 89.7253 1.9109C89.7696 1.87891 89.8224 1.86174 89.8765 1.86176H90.9664C91.1499 1.86176 91.2772 2.05002 91.2116 2.22633ZM95.2697 3.55883V5.03063C95.2697 5.17909 95.3872 5.29968 95.5319 5.29968H97.87C98.0147 5.29968 98.1327 5.41988 98.1327 5.56873V6.44234C98.1326 6.51373 98.1048 6.58216 98.0556 6.6326C98.0063 6.68305 97.9396 6.71138 97.87 6.71138H95.5319C95.4623 6.71149 95.3956 6.73992 95.3465 6.79044C95.2973 6.84096 95.2697 6.90944 95.2697 6.98083V8.44148C95.2697 8.58994 95.3872 8.71013 95.5319 8.71013H98.2588C98.4039 8.71013 98.521 8.83113 98.521 8.97958V9.86911C98.5211 9.90447 98.5144 9.9395 98.5012 9.97219C98.488 10.0049 98.4687 10.0346 98.4444 10.0596C98.42 10.0846 98.3911 10.1045 98.3592 10.118C98.3274 10.1316 98.2932 10.1386 98.2588 10.1386H93.966C93.9316 10.1385 93.8975 10.1315 93.8657 10.1179C93.8339 10.1044 93.805 10.0845 93.7806 10.0595C93.7563 10.0344 93.737 10.0048 93.7239 9.9721C93.7108 9.93943 93.7041 9.90444 93.7041 9.86911V2.13121C93.7041 1.98236 93.8213 1.86176 93.966 1.86176H98.2588C98.4039 1.86176 98.521 1.98236 98.521 2.13121V3.02074C98.5211 3.05608 98.5144 3.09109 98.5012 3.12376C98.488 3.15643 98.4687 3.18611 98.4443 3.2111C98.42 3.23609 98.391 3.25591 98.3592 3.26941C98.3274 3.28291 98.2932 3.28984 98.2588 3.28978H95.5319C95.4624 3.28989 95.3958 3.31827 95.3466 3.3687C95.2974 3.41913 95.2698 3.48751 95.2697 3.55883ZM102.906 5.08436C102.906 5.23282 103.024 5.35381 103.169 5.35381H104.388C105.139 5.35381 105.544 4.95979 105.544 4.29752C105.544 3.6456 105.139 3.21974 104.388 3.21974H103.169C103.099 3.21974 103.032 3.24812 102.983 3.29866C102.934 3.34919 102.906 3.41772 102.906 3.48918V5.08436ZM104.064 6.64094H103.168C103.099 6.64094 103.032 6.66932 102.983 6.71986C102.933 6.77039 102.906 6.83892 102.906 6.91038V9.86911C102.906 9.90447 102.899 9.9395 102.886 9.97219C102.873 10.0049 102.853 10.0346 102.829 10.0596C102.805 10.0846 102.776 10.1045 102.744 10.118C102.712 10.1316 102.678 10.1386 102.643 10.1386H101.603C101.568 10.1386 101.534 10.1316 101.502 10.118C101.471 10.1045 101.442 10.0846 101.417 10.0596C101.393 10.0346 101.374 10.0049 101.36 9.97219C101.347 9.9395 101.341 9.90447 101.341 9.86911V2.13121C101.341 1.98236 101.458 1.86176 101.603 1.86176H104.492C106.152 1.86176 107.061 2.96104 107.061 4.31344C107.061 5.21889 106.608 5.94523 105.91 6.33448C105.879 6.35154 105.852 6.37483 105.83 6.40294C105.808 6.43105 105.792 6.4634 105.783 6.49805C105.773 6.5327 105.771 6.56893 105.776 6.60457C105.78 6.6402 105.792 6.6745 105.81 6.70541L107.557 9.73219C107.58 9.77308 107.593 9.81957 107.593 9.86699C107.594 9.9144 107.582 9.96106 107.559 10.0022C107.536 10.0434 107.503 10.0777 107.463 10.1015C107.423 10.1254 107.377 10.138 107.331 10.1382H106.245C106.198 10.1383 106.152 10.1254 106.111 10.1009C106.071 10.0764 106.037 10.0411 106.015 9.99885L104.294 6.78103C104.271 6.73868 104.238 6.70333 104.198 6.67868C104.157 6.65404 104.111 6.641 104.064 6.64094ZM117.776 2.13121V9.8695C117.776 9.94083 117.749 10.0092 117.699 10.0596C117.65 10.1101 117.584 10.1384 117.514 10.1386H116.422C116.382 10.1386 116.343 10.1296 116.307 10.112C116.272 10.0944 116.24 10.0688 116.216 10.0371L112.161 4.81332C112.006 4.61433 111.694 4.72656 111.694 4.98128V9.8695C111.694 9.9409 111.666 10.0093 111.617 10.0598C111.568 10.1102 111.501 10.1386 111.431 10.1386H110.412C110.342 10.1384 110.275 10.1101 110.226 10.0596C110.177 10.0092 110.15 9.94079 110.15 9.8695V2.13121C110.15 1.98236 110.267 1.86176 110.412 1.86176H111.494C111.574 1.86176 111.649 1.89918 111.699 1.96325L115.755 7.16749C115.909 7.36649 116.222 7.25425 116.222 6.99953V2.13161C116.222 1.98276 116.339 1.86216 116.484 1.86216H117.514C117.659 1.86216 117.776 1.98236 117.776 2.13121ZM129.778 2.13121V9.8695C129.778 9.94086 129.751 10.0093 129.701 10.0598C129.652 10.1102 129.586 10.1386 129.516 10.1386H128.475C128.406 10.1386 128.339 10.1102 128.29 10.0598C128.241 10.0093 128.213 9.9409 128.213 9.8695V5.38087C128.213 5.08595 127.817 5.00596 127.707 5.27898L125.837 9.97139C125.817 10.0207 125.784 10.0629 125.74 10.0927C125.697 10.1224 125.646 10.1384 125.594 10.1386H125.133C125.081 10.1385 125.03 10.1225 124.986 10.0926C124.943 10.0627 124.909 10.0202 124.89 9.9706L123.029 5.2766C122.921 5.00317 122.524 5.08237 122.524 5.37808V9.8695C122.524 9.9409 122.496 10.0093 122.447 10.0598C122.398 10.1102 122.331 10.1386 122.261 10.1386H121.221C121.151 10.1386 121.085 10.1102 121.035 10.0598C120.986 10.0093 120.958 9.9409 120.958 9.8695V2.13121C120.958 1.98236 121.076 1.86176 121.221 1.86176H122.906C123.012 1.86176 123.107 1.92743 123.148 2.02813L125.119 6.92511C125.139 6.97441 125.172 7.0166 125.215 7.04632C125.258 7.07604 125.309 7.09195 125.361 7.09203C125.413 7.09212 125.464 7.07638 125.507 7.0468C125.55 7.01722 125.584 6.97514 125.604 6.9259L127.594 2.02733C127.614 1.97833 127.648 1.93647 127.691 1.90702C127.734 1.87756 127.785 1.86182 127.836 1.86176H129.516C129.661 1.86176 129.778 1.98236 129.778 2.13121ZM134.531 3.55883V5.03063C134.531 5.17909 134.649 5.29968 134.794 5.29968H137.132C137.277 5.29968 137.394 5.41988 137.394 5.56873V6.44234C137.394 6.51369 137.367 6.58212 137.317 6.63258C137.268 6.68304 137.201 6.71138 137.132 6.71138H134.794C134.724 6.71138 134.657 6.73977 134.608 6.7903C134.559 6.84083 134.531 6.90937 134.531 6.98083V8.44148C134.531 8.58994 134.649 8.71013 134.794 8.71013H137.521C137.665 8.71013 137.783 8.83113 137.783 8.97958V9.86911C137.783 9.90444 137.776 9.93943 137.763 9.9721C137.75 10.0048 137.73 10.0344 137.706 10.0595C137.682 10.0845 137.653 10.1044 137.621 10.1179C137.589 10.1315 137.555 10.1385 137.521 10.1386H133.228C133.193 10.1386 133.159 10.1316 133.127 10.118C133.096 10.1045 133.067 10.0846 133.042 10.0596C133.018 10.0346 132.999 10.0049 132.985 9.97219C132.972 9.9395 132.966 9.90447 132.966 9.86911V2.13121C132.966 1.98236 133.084 1.86176 133.228 1.86176H137.521C137.665 1.86176 137.783 1.98236 137.783 2.13121V3.02074C137.783 3.05605 137.776 3.09103 137.763 3.12367C137.75 3.15631 137.73 3.18597 137.706 3.21096C137.682 3.23595 137.653 3.25577 137.621 3.2693C137.589 3.28282 137.555 3.28978 137.521 3.28978H134.794C134.724 3.28978 134.657 3.31812 134.608 3.36856C134.559 3.41901 134.531 3.48744 134.531 3.55883ZM148.23 2.13121V9.8695C148.23 9.90489 148.223 9.93992 148.21 9.97259C148.197 10.0053 148.177 10.0349 148.153 10.0599C148.128 10.0849 148.099 10.1047 148.068 10.1182C148.036 10.1317 148.002 10.1386 147.967 10.1386H146.875C146.835 10.1386 146.796 10.1295 146.761 10.1119C146.725 10.0943 146.694 10.0687 146.67 10.0371L142.615 4.81332C142.46 4.61433 142.147 4.72656 142.147 4.98128V9.8695C142.147 9.94083 142.119 10.0092 142.07 10.0596C142.021 10.1101 141.954 10.1384 141.885 10.1386H140.864C140.795 10.1384 140.728 10.1101 140.679 10.0596C140.63 10.0092 140.602 9.94079 140.602 9.8695V2.13121C140.602 1.98236 140.72 1.86176 140.865 1.86176H141.947C142.027 1.86176 142.102 1.89918 142.152 1.96325L146.207 7.16749C146.362 7.36649 146.675 7.25425 146.675 6.99953V2.13161C146.675 1.98276 146.792 1.86216 146.937 1.86216H147.967C148.112 1.86216 148.23 1.98236 148.23 2.13121Z" fill="black"/>
<path fill-rule="evenodd" clip-rule="evenodd" d="M156.109 3.28984H154.559C154.524 3.28984 154.49 3.29681 154.458 3.31035C154.426 3.3239 154.397 3.34375 154.373 3.36878C154.349 3.3938 154.329 3.42351 154.316 3.4562C154.303 3.48889 154.296 3.52392 154.296 3.55928V9.86955C154.296 9.94088 154.269 10.0092 154.219 10.0597C154.17 10.1101 154.104 10.1385 154.034 10.1386H152.999C152.929 10.1385 152.862 10.1101 152.813 10.0597C152.764 10.0092 152.736 9.94088 152.736 9.86955V3.55928C152.736 3.52392 152.73 3.48889 152.716 3.4562C152.703 3.42351 152.684 3.3938 152.66 3.36878C152.635 3.34375 152.606 3.3239 152.574 3.31035C152.543 3.29681 152.508 3.28984 152.474 3.28984H150.919C150.849 3.28984 150.783 3.26156 150.733 3.2112C150.684 3.16084 150.656 3.09251 150.656 3.02119V2.13126C150.656 1.98241 150.774 1.86182 150.919 1.86182H156.109C156.254 1.86182 156.372 1.98241 156.372 2.13126V3.02079C156.372 3.09218 156.344 3.16061 156.295 3.21106C156.245 3.2615 156.179 3.28984 156.109 3.28984Z" fill="black"/>
<path fill-rule="evenodd" clip-rule="evenodd" d="M168.462 4.50209C168.462 3.74271 167.99 3.21416 167.086 3.21416H165.699C165.63 3.21416 165.563 3.24255 165.514 3.29308C165.464 3.34361 165.437 3.41215 165.437 3.48361V5.50504C165.437 5.6535 165.554 5.77369 165.699 5.77369H167.086C167.99 5.77369 168.463 5.2945 168.463 4.50209H168.462ZM169.981 4.5188C169.981 6.00573 168.941 7.13167 167.322 7.13167H165.699C165.63 7.13167 165.563 7.16005 165.514 7.21058C165.464 7.26111 165.437 7.32965 165.437 7.40111V9.8695C165.437 9.90485 165.43 9.93986 165.417 9.97252C165.404 10.0052 165.384 10.0349 165.36 10.0599C165.336 10.0849 165.307 10.1047 165.275 10.1182C165.243 10.1317 165.209 10.1386 165.174 10.1385H164.134C164.099 10.1386 164.065 10.1317 164.033 10.1182C164.001 10.1047 163.972 10.0849 163.948 10.0599C163.924 10.0349 163.904 10.0052 163.891 9.97255C163.878 9.93989 163.871 9.90487 163.871 9.8695V2.13081C163.871 1.98236 163.988 1.86176 164.134 1.86176H167.322C168.941 1.86176 169.981 3.05297 169.981 4.5188ZM174.082 5.08436C174.082 5.23281 174.199 5.35381 174.345 5.35381H175.563C176.314 5.35381 176.719 4.95979 176.719 4.29712C176.719 3.6452 176.314 3.21974 175.563 3.21974H174.345C174.31 3.21968 174.276 3.2266 174.244 3.2401C174.212 3.2536 174.183 3.27341 174.159 3.2984C174.134 3.32338 174.115 3.35306 174.102 3.38573C174.089 3.4184 174.082 3.45342 174.082 3.48878V5.08476V5.08436ZM175.24 6.64133H174.345C174.275 6.64133 174.208 6.66966 174.159 6.72011C174.11 6.77055 174.082 6.83899 174.082 6.91038V9.8691C174.082 9.9045 174.075 9.93956 174.062 9.97228C174.049 10.005 174.03 10.0347 174.005 10.0597C173.981 10.0848 173.952 10.1046 173.92 10.1181C173.888 10.1317 173.854 10.1386 173.819 10.1385H172.779C172.744 10.1385 172.71 10.1316 172.678 10.118C172.646 10.1045 172.617 10.0846 172.593 10.0596C172.569 10.0346 172.549 10.0049 172.536 9.97218C172.523 9.9395 172.516 9.90447 172.516 9.8691V2.13081C172.516 1.98236 172.634 1.86216 172.779 1.86216H175.668C177.328 1.86216 178.237 2.96104 178.237 4.31344C178.237 5.21849 177.784 5.94563 177.086 6.33408C177.055 6.35122 177.028 6.37455 177.006 6.40267C176.984 6.43079 176.968 6.46312 176.959 6.49774C176.95 6.53236 176.947 6.56856 176.952 6.60417C176.956 6.63978 176.968 6.67407 176.986 6.70501L178.732 9.73219C178.756 9.77302 178.769 9.81951 178.769 9.86694C178.769 9.91437 178.757 9.96105 178.735 10.0023C178.712 10.0435 178.679 10.0778 178.639 10.1016C178.599 10.1255 178.553 10.1381 178.507 10.1381H177.421C177.374 10.1382 177.327 10.1253 177.287 10.1008C177.247 10.0763 177.213 10.0411 177.191 9.99885L175.47 6.78103C175.447 6.73875 175.414 6.70348 175.373 6.67891C175.333 6.65433 175.287 6.64136 175.24 6.64133ZM187.503 6.00016C187.503 4.44279 186.331 3.24163 184.813 3.24163C183.3 3.24163 182.123 4.44279 182.123 6.00016C182.123 7.55753 183.3 8.75908 184.813 8.75908C186.331 8.75908 187.503 7.55753 187.503 6.00016ZM180.553 6.00016C180.553 3.58032 182.391 1.7543 184.813 1.7543C187.234 1.7543 189.073 3.58032 189.073 6.00016C189.073 8.41999 187.234 10.2464 184.813 10.2464C182.391 10.2464 180.553 8.41959 180.553 6.00016ZM194.399 8.71053C196.111 8.71053 196.941 7.75135 196.941 6.00016C196.941 4.24896 196.111 3.29018 194.399 3.29018H193.526C193.456 3.29018 193.39 3.31853 193.34 3.36898C193.291 3.41944 193.264 3.48787 193.264 3.55923V8.44108C193.264 8.58993 193.381 8.71053 193.526 8.71053H194.399ZM191.704 2.13081C191.704 1.98236 191.821 1.86216 191.966 1.86216H194.466C197.146 1.86216 198.564 3.49396 198.564 6.00016C198.564 8.50596 197.146 10.1385 194.466 10.1385H191.966C191.932 10.1385 191.898 10.1316 191.866 10.118C191.834 10.1045 191.805 10.0846 191.781 10.0596C191.756 10.0346 191.737 10.0049 191.724 9.97218C191.711 9.9395 191.704 9.90447 191.704 9.8691V2.13081ZM201.08 7.27176V2.13121C201.08 1.98196 201.197 1.86176 201.342 1.86176H202.383C202.527 1.86176 202.645 1.98196 202.645 2.13121V7.02381C202.645 8.34397 203.386 8.82396 204.358 8.82396C205.334 8.82396 206.075 8.34397 206.075 7.02381V2.13121C206.075 1.98196 206.193 1.86176 206.337 1.86176H207.384C207.529 1.86176 207.646 1.98196 207.646 2.13121V7.27176C207.646 9.24942 206.227 10.246 204.358 10.246C202.498 10.246 201.079 9.24942 201.079 7.27176H201.08ZM210.113 6.00016C210.113 3.58032 211.946 1.7543 214.374 1.7543C215.464 1.7543 216.503 2.16981 217.251 2.84681C217.279 2.87166 217.302 2.90223 217.317 2.93654C217.333 2.97086 217.341 3.00816 217.342 3.04603C217.343 3.08391 217.336 3.12152 217.322 3.15645C217.307 3.19137 217.286 3.22283 217.259 3.24879L216.538 3.9421C216.491 3.98813 216.428 4.0141 216.363 4.01483C216.297 4.01557 216.234 3.99102 216.185 3.94608C215.71 3.50152 215.061 3.24163 214.374 3.24163C212.855 3.24163 211.684 4.43761 211.684 6.00016C211.684 7.5627 212.855 8.75908 214.373 8.75908C215.061 8.75908 215.71 8.49879 216.185 8.05423C216.234 8.00917 216.297 7.98455 216.363 7.98529C216.428 7.98603 216.491 8.01207 216.539 8.05821L217.259 8.75192C217.286 8.77788 217.307 8.80934 217.322 8.84426C217.336 8.87918 217.343 8.9168 217.342 8.95468C217.341 8.99255 217.333 9.02985 217.317 9.06417C217.302 9.09848 217.279 9.12905 217.251 9.1539C216.503 9.8305 215.464 10.2464 214.373 10.2464C211.946 10.2464 210.113 8.41959 210.113 6.00016ZM224.589 3.28978H223.039C223.005 3.28978 222.971 3.29676 222.939 3.3103C222.907 3.32385 222.878 3.3437 222.854 3.36872C222.829 3.39375 222.81 3.42346 222.797 3.45614C222.784 3.48883 222.777 3.52386 222.777 3.55923V9.8695C222.777 9.94079 222.749 10.0091 222.7 10.0595C222.651 10.1099 222.584 10.1381 222.515 10.1381H221.479C221.445 10.1382 221.411 10.1313 221.379 10.1178C221.347 10.1044 221.318 10.0846 221.294 10.0596C221.269 10.0347 221.25 10.0051 221.237 9.97243C221.223 9.93981 221.217 9.90483 221.217 9.8695V3.55923C221.217 3.52388 221.21 3.48886 221.197 3.45618C221.184 3.42349 221.165 3.39378 221.14 3.36875C221.116 3.34372 221.087 3.32386 221.055 3.31031C221.023 3.29676 220.989 3.28978 220.955 3.28978H219.399C219.329 3.28968 219.263 3.26128 219.214 3.21084C219.165 3.16039 219.137 3.09202 219.137 3.02074V2.13121C219.137 1.98196 219.254 1.86176 219.399 1.86176H224.589C224.735 1.86176 224.852 1.98196 224.852 2.13121V3.02074C224.852 3.09213 224.824 3.16056 224.775 3.21101C224.726 3.26145 224.659 3.28978 224.589 3.28978ZM226.749 8.7352L227.317 8.00766C227.34 7.97855 227.368 7.9546 227.4 7.93735C227.432 7.9201 227.468 7.90993 227.504 7.90749C227.54 7.90506 227.576 7.91041 227.61 7.92321C227.644 7.936 227.675 7.95596 227.702 7.98179C228.244 8.51869 228.991 8.88286 229.648 8.88286C230.278 8.88286 230.735 8.54934 230.735 7.9615C230.735 7.22321 230.015 6.94819 229.096 6.53387C228.04 6.05946 226.927 5.52057 226.927 4.05991C226.927 2.59448 228.04 1.75391 229.416 1.75391C230.327 1.75391 231.184 2.10295 231.887 2.68005C231.995 2.7684 232.011 2.93079 231.929 3.04501L231.42 3.75266C231.4 3.78184 231.373 3.8064 231.343 3.82485C231.313 3.84331 231.279 3.85528 231.244 3.86004C231.209 3.8648 231.174 3.86226 231.14 3.85256C231.106 3.84285 231.074 3.8262 231.047 3.8036C230.505 3.34232 229.893 3.11745 229.38 3.11745C228.87 3.11745 228.466 3.38172 228.466 3.89872C228.466 4.57214 229.159 4.83601 230.089 5.24595C231.15 5.72554 232.3 6.31816 232.3 7.85921C232.3 9.44324 231.082 10.2408 229.642 10.2408C228.604 10.2408 227.539 9.81338 226.783 9.10733C226.732 9.06139 226.7 8.99725 226.694 8.92807C226.688 8.85888 226.708 8.78988 226.749 8.7352Z" fill="black"/>
</svg>
