<svg width="160" height="128" viewBox="0 0 160 128" fill="none" xmlns="http://www.w3.org/2000/svg">
<path d="M76.1151 77.3931C66.4463 80.8739 52.91 96.7307 44.7882 104.079C42.6223 113.98 50.2027 112.063 47.1087 116.446C56.7001 119.849 56.5196 97.7621 65.6728 96.7307C49.5839 123.649 44.5303 155.904 44.0146 172.921C56.004 168.667 77.6621 170.987 85.7839 174.855C92.2813 177.949 107.571 175.628 114.404 174.081V126.115C119.045 123.408 119.431 123.03 127.166 121.096C122.216 102.841 107.442 82.8077 99.3202 73.9124L76.1151 77.3931Z" fill="#465173" stroke="black" stroke-width="1.46966" stroke-linecap="round" stroke-linejoin="round"/>
<path d="M49.0424 171.374C45.0202 159.617 50.4605 137.469 52.91 125.35C48.8877 137.417 44.5303 160.416 43.6279 172.921L49.0424 171.374Z" fill="black" stroke="black" stroke-width="1.46966" stroke-linecap="round" stroke-linejoin="round"/>
<path d="M101.751 189.773C103.479 184.806 125.451 143.593 103.622 111.492C96.9985 98.2777 100.093 83.1944 102.413 77.3932C110.535 90.1559 153.078 130.378 112.153 189.299C113.185 194.572 115.457 204.423 112.153 204.502C110.956 204.531 110.597 204.068 110.56 203.477C110.167 204.34 109.445 205.095 108.275 205.148C107.09 205.202 106.865 204.321 106.887 203.43C106.466 204.559 105.436 205.238 104.347 205.148C102.417 204.99 104.347 198.701 102.417 194.919C101.665 196.296 99.5795 198.6 97.2547 196.808C94.9299 195.016 99.2833 191.372 101.751 189.773Z" fill="#FFCAA4"/>
<path d="M107.054 201.795C107.32 203.853 105.894 205.275 104.347 205.148C102.417 204.99 104.347 198.701 102.417 194.919C101.665 196.296 99.5795 198.6 97.2547 196.808C94.9299 195.016 99.2833 191.372 101.751 189.773C103.479 184.806 125.451 143.593 103.622 111.492C96.9985 98.2777 100.093 83.1944 102.413 77.3932C110.535 90.1559 153.078 130.378 112.153 189.299C113.185 194.572 115.457 204.423 112.153 204.502C109.511 204.565 110.952 202.238 110.921 201.408M107.054 201.795C107.071 202.454 106.195 205.243 108.275 205.148C110.439 205.05 111.069 202.551 110.921 201.408M107.054 201.795C107.054 201.795 107.227 199.166 106.28 194.919M110.921 201.408C110.921 201.408 111.308 197.154 109.374 194.446" stroke="black" stroke-width="1.46966" stroke-linecap="round" stroke-linejoin="round"/>
<path d="M21.1965 141.981C12.6879 123.804 61.8054 81.6476 76.502 77.3933C76.502 77.3933 72.1408 89.3826 66.8332 100.212C61.5255 111.041 58.7114 111.427 58.7114 111.427L67.4998 131.141C63.0193 135.226 55.6846 132.63 49.3225 135.485C37.013 141.007 24.0011 143.766 21.1965 141.981Z" fill="#FFCAA4" stroke="black" stroke-width="1.46966" stroke-linecap="round" stroke-linejoin="round"/>
<path d="M58.3247 119.549C62.0375 119.859 61.1608 123.03 60.2584 124.577C56.855 127.052 52.6523 127.929 50.9764 128.058M58.3247 119.549C59.1841 118.002 57.4738 115.604 54.0704 116.842C50.667 118.08 48.5269 118.131 47.8824 118.002C46.9542 117.978 44.4016 112.062 43.2413 109.107C40.7661 111.273 41.6943 117.229 42.4678 119.936C42.4678 119.936 39.2669 126.5 29.5981 128.831M58.3247 119.549C56.7777 122.334 52.0077 123.546 49.8161 123.804" stroke="black" stroke-width="1.46966" stroke-linecap="round" stroke-linejoin="round"/>
<path d="M72.6348 136.566L62.1925 95.9575L39.7608 100.599L42.0814 109.494H43.2416L47.9563 118.776C48.6009 118.905 50.7409 118.853 54.1443 117.616C58.2181 114.51 58.2181 118.636 58.2181 120.312C60.9253 118.776 62.1925 123.019 60.1518 124.953C60.4612 129.903 52.2106 134.117 47.9563 135.019L49.4296 141.208L72.6348 136.566Z" fill="black" stroke="black" stroke-width="1.16026" stroke-linecap="round" stroke-linejoin="round"/>
<circle cx="2.32051" cy="2.32051" r="2.32051" transform="matrix(-0.979988 -0.199056 -0.199056 0.979988 60.5381 101.124)" fill="black"/>
<path d="M54.1163 24.8032C55.4398 20.5386 60.408 13.9741 64.5586 13.9741C63.0807 17.6869 60.5312 33.3117 60.408 37.9528C57.2103 37.9528 50.6355 36.019 54.1163 24.8032Z" fill="#BFC2C8" stroke="black" stroke-width="1.46966" stroke-linecap="round" stroke-linejoin="round"/>
<path d="M59.1436 53.4318V24.8033C59.1436 21.7093 61.0773 10.4935 80.0282 10.1068C98.979 9.71997 102.073 22.8693 102.073 22.8693C102.073 30.277 99.7279 34.4368 96.824 36.6915C100.023 34.7675 104.866 33.2455 105.941 38.3484C107.178 44.2271 100.784 46.4702 97.432 46.857C94.9568 60.1613 97.432 69.9332 98.979 73.1562C95.885 79.3442 85.0559 78.3129 80.0282 77.0237V67.3549C59.2983 67.9737 59.1436 60.3933 59.1436 53.4318Z" fill="#FFCAA4" stroke="black" stroke-width="1.46966" stroke-linecap="round" stroke-linejoin="round"/>
<path d="M79.4873 67.5608C82.1971 67.4377 86.6486 66.6319 87.8495 64.4015C87.8999 64.2917 87.9487 64.1845 87.9959 64.0801C87.9545 64.1904 87.9055 64.2975 87.8495 64.4015C85.9713 68.497 81.8979 76.2403 79.4873 76.8429V67.5608Z" fill="black" stroke="black" stroke-width="1.46966" stroke-linecap="round" stroke-linejoin="round"/>
<path d="M95.1122 36.4059C98.5929 27.897 99.3664 22.0957 96.6591 15.5207C99.3664 14.1675 102.847 17.8416 105.168 22.0959C108.543 28.2844 105.168 36.7922 105.168 36.7922C100.14 31.3781 93.2869 40.868 95.1122 36.4059Z" fill="#BFC2C8" stroke="black" stroke-width="1.46966" stroke-linecap="round" stroke-linejoin="round"/>
<path d="M81.1885 19.2548C79.2547 17.8415 71.5197 17.4547 68.0389 19.2546" stroke="black" stroke-width="1.16026" stroke-linecap="round" stroke-linejoin="round"/>
<path d="M77.708 21.3232C75.1297 20.5497 73.9952 20.3944 71.52 21.3226" stroke="black" stroke-width="1.16026" stroke-linecap="round" stroke-linejoin="round"/>
<path d="M64.3693 40.397C64.5697 39.5557 65.0574 38.6181 66.3645 38.7386C67.5823 38.8509 68.2232 39.8926 68.1109 41.1104" stroke="black" stroke-width="1.16026" stroke-linecap="round" stroke-linejoin="round"/>
<path d="M77.6019 40.938C77.7638 40.0885 78.2083 39.1297 79.5196 39.1906C80.7413 39.2474 81.4289 40.2588 81.3721 41.4805" stroke="black" stroke-width="1.16026" stroke-linecap="round" stroke-linejoin="round"/>
<path d="M75.6261 44.1575C75.0035 42.1143 72.8424 40.9626 70.7992 41.5852C68.756 42.2077 67.6043 44.3688 68.2269 46.412C68.5956 47.6224 69.5043 48.5199 70.6086 48.9211" stroke="black" stroke-width="1.16026" stroke-linecap="round" stroke-linejoin="round"/>
<path d="M78.0479 32.9748C78.0479 31.3697 82.3021 30.9829 83.4624 34.077" stroke="black" stroke-width="1.16026" stroke-linecap="round" stroke-linejoin="round"/>
<path d="M67.9922 32.9748C67.9922 31.3698 63.3512 30.5962 62.5777 34.077" stroke="black" stroke-width="1.16026" stroke-linecap="round" stroke-linejoin="round"/>
<path d="M76.9451 59.6537C81.7532 58.3224 83.7307 51.8018 84.1184 48.7079C80.1645 52.2251 70.7702 55.689 64.0299 52.3786C64.849 58.5729 72.1371 60.985 76.9451 59.6537Z" fill="black" stroke="black" stroke-width="1.16026" stroke-linecap="round" stroke-linejoin="round"/>
<path d="M74.7014 57.487C72.2315 55.9011 69.8562 57.1859 68.9773 58.0266C75.4928 61.2798 78.7652 57.7223 79.587 55.5369C77.7168 54.1036 75.5507 56.2397 74.7014 57.487Z" fill="white"/>
<path d="M81.1421 93.6366C75.3599 93.9506 79.2467 82.1916 79.7286 74.3425L98.1592 71.9785C97.7978 83.3598 88.3698 93.2442 81.1421 93.6366Z" fill="#FFCAA4" stroke="black" stroke-width="1.46966" stroke-linecap="round" stroke-linejoin="round"/>
<path d="M97.3857 73.1388V71.2051L84.2362 72.7521L79.5951 76.6196L97.3857 73.1388Z" fill="#FFCAA4"/>
<path d="M79.5946 78.1666C79.5946 78.1666 84.5943 73.7238 85.0091 71.5918C85.424 69.4598 79.5946 74.329 79.5946 74.329V78.1666Z" fill="black"/>
<path d="M82.6891 42.5854C82.6891 44.7214 80.9576 46.453 78.8216 46.453C76.6856 46.453 74.9541 44.7214 74.9541 42.5854C74.9541 42.5854 76.6856 42.5855 78.8216 42.5855C80.9576 42.5855 82.6891 42.5854 82.6891 42.5854Z" fill="white" stroke="black" stroke-width="1.16026" stroke-linecap="round" stroke-linejoin="round"/>
<path d="M68.7663 42.5854C68.7663 44.7214 67.0347 46.453 64.8988 46.453C62.7628 46.453 61.0312 44.7214 61.0312 42.5854C61.0312 42.5854 62.7628 42.5855 64.8988 42.5855C67.0347 42.5855 68.7663 42.5854 68.7663 42.5854Z" fill="white" stroke="black" stroke-width="1.16026" stroke-linecap="round" stroke-linejoin="round"/>
</svg>
